<?xml version="1.0" encoding="UTF-8"?>
<svg version="1.1" xmlns="http://www.w3.org/2000/svg" width="1200" height="630">
<path d="M0 0 C396 0 792 0 1200 0 C1200 207.9 1200 415.8 1200 630 C804 630 408 630 0 630 C0 422.1 0 214.2 0 0 Z " fill="#F7F7F7" transform="translate(0,0)"/>
<path d="M0 0 C2.37293742 -0.00407671 4.74587293 -0.00942469 7.11880493 -0.01593018 C13.49898153 -0.02947888 19.8790108 -0.02435708 26.25918961 -0.01479292 C30.25876799 -0.01023054 34.2583257 -0.0104813 38.25790405 -0.0132637 C39.26032356 -0.01395325 39.26032356 -0.01395325 40.28299397 -0.01465673 C41.64146941 -0.01561611 42.99994484 -0.01658875 44.35842025 -0.0175745 C57.03499084 -0.02608677 69.71149586 -0.01636018 82.38805568 -0.0001734 C93.21609333 0.01322597 104.04403441 0.0108967 114.87207031 -0.00292969 C127.50971592 -0.0190597 140.14730437 -0.02526318 152.78495884 -0.0160929 C154.1378587 -0.01513746 155.49075857 -0.01419434 156.84365845 -0.0132637 C157.50895166 -0.01280088 158.17424487 -0.01233805 158.85969847 -0.0118612 C163.50131869 -0.00929344 168.14290061 -0.01374438 172.78451538 -0.02070236 C179.05565292 -0.02944855 185.32661038 -0.02321211 191.59772873 -0.00601959 C193.88197915 -0.00209525 196.16624505 -0.003118 198.45048904 -0.00980759 C209.37759084 -0.03882727 220.11374324 0.20100909 230.94995117 1.70932007 C231.77343457 1.82343251 232.59691797 1.93754495 233.44535542 2.05511534 C257.15395562 5.75830531 279.09651707 19.29468052 293.55078125 38.38818359 C306.91319952 57.92664009 311.71367371 79.4245021 311.69122314 102.83958435 C311.69567983 104.32709555 311.69567983 104.32709555 311.70022655 105.84465748 C311.70883145 109.13578632 311.71041478 112.42687843 311.71191406 115.71801758 C311.71654811 118.09110083 311.72157355 120.46418335 311.72695923 122.83726501 C311.741391 129.93257838 311.74746041 137.02788391 311.75235474 144.12320933 C311.75494237 147.4772979 311.75873148 150.83138504 311.76247406 154.18547249 C311.77465738 165.35575808 311.78495829 176.5260418 311.78834915 187.69633389 C311.78856872 188.40951346 311.78878828 189.12269303 311.7890145 189.85748411 C311.78923278 190.57223313 311.78945106 191.28698215 311.78967595 192.02339023 C311.79011939 193.47140404 311.79056596 194.91941784 311.79101562 196.36743164 C311.79123705 197.08567492 311.79145848 197.8039182 311.79168662 198.54392643 C311.79562855 210.16302596 311.81306825 221.78206256 311.83637515 233.40113782 C311.86018842 245.37067646 311.87255552 257.34018365 311.87371707 269.30974633 C311.87462829 276.01386786 311.88056619 282.71789491 311.89853668 289.42199516 C311.9151346 295.73647857 311.91711648 302.05080736 311.90839767 308.36530495 C311.9076335 310.66771232 311.91188692 312.97012842 311.92185593 315.27251434 C312.04351421 345.15032241 308.22272463 374.26874236 287.55078125 397.38818359 C286.81214844 398.22091797 286.07351563 399.05365234 285.3125 399.91162109 C274.07765188 411.86358718 259.90996225 419.25725612 244.36328125 424.07568359 C243.7293042 424.27838867 243.09532715 424.48109375 242.44213867 424.68994141 C227.27047453 429.13440984 211.30897159 428.6819555 195.66918945 428.6628418 C193.29699037 428.66719744 190.92479268 428.67238341 188.55259705 428.67832947 C182.15149616 428.6916403 175.7504546 428.6923069 169.34934258 428.68976617 C165.33890435 428.68896231 161.32848066 428.69111931 157.31804466 428.69475365 C156.64908754 428.69534884 155.98013042 428.69594402 155.29090187 428.69655725 C153.93121877 428.6977692 152.57153567 428.69898333 151.21185257 428.70019963 C138.50193862 428.71103972 125.7920513 428.70892972 113.08213588 428.70281478 C101.50282437 428.69765111 89.92359713 428.70889286 78.34430227 428.727913 C66.40284537 428.74737485 54.46142817 428.75553271 42.51995534 428.75178975 C35.83656313 428.74988999 29.15325778 428.75251583 22.46987343 428.76650429 C16.1782927 428.77918162 9.88687917 428.77704583 3.59530067 428.7640934 C1.30298808 428.76174932 -0.98933664 428.76438312 -3.28163528 428.77271652 C-33.21379577 428.87357704 -62.39896878 425.27263827 -85.44921875 404.38818359 C-86.279375 403.65083984 -87.10953125 402.91349609 -87.96484375 402.15380859 C-107.59349792 383.72936634 -115.75691288 357.04969396 -116.72432899 330.71849823 C-116.86479645 324.47008569 -116.84421444 318.22269954 -116.8215332 311.97314453 C-116.82396758 309.59224286 -116.82769312 307.21134221 -116.83259583 304.83044434 C-116.84191795 298.42574421 -116.83265415 292.02119924 -116.8192637 285.61651134 C-116.80901824 279.5665818 -116.81157023 273.51666908 -116.81346621 267.46673349 C-116.81664131 255.48121444 -116.80507216 243.49575522 -116.78540039 231.51025391 C-116.76638557 219.92169373 -116.75931917 208.33320357 -116.76489258 196.74462891 C-116.77096988 184.07115286 -116.77073902 171.3977074 -116.75940675 158.72423387 C-116.75819966 157.36944215 -116.75699368 156.01465043 -116.7557888 154.6598587 C-116.75518526 153.99356695 -116.75458173 153.32727519 -116.7539599 152.64079277 C-116.75010506 147.97931198 -116.75052551 143.31784655 -116.75237465 138.65636444 C-116.75426933 132.36887034 -116.74606354 126.08146496 -116.73031425 119.79399109 C-116.72610139 117.49796669 -116.72520043 115.20193323 -116.72800446 112.90590668 C-116.74078258 100.5633654 -116.41820422 88.59069437 -114.44921875 76.38818359 C-114.31470464 75.537673 -114.18019053 74.6871624 -114.04160023 73.81087875 C-110.90228681 55.60852198 -100.31629375 39.14337098 -87.44921875 26.38818359 C-86.76601563 25.67146484 -86.0828125 24.95474609 -85.37890625 24.21630859 C-62.63825195 1.92154948 -29.94125409 -0.08768524 0 0 Z " fill="#00618B" transform="translate(502.44921875,100.61181640625)"/>
<path d="M0 0 C0.33 0 0.66 0 1 0 C1 83.82 1 167.64 1 254 C-2.89434802 252.70188399 -6.11977851 251.56490794 -9.7043457 249.76928711 C-11.02019402 249.11367043 -11.02019402 249.11367043 -12.36262512 248.44480896 C-13.29096664 247.97704544 -14.21930817 247.50928192 -15.17578125 247.02734375 C-16.14154587 246.54423233 -17.10731049 246.06112091 -18.1023407 245.56336975 C-20.13468914 244.54568958 -22.16606877 243.52607262 -24.1965332 242.50463867 C-27.31687001 240.93530215 -30.44039227 239.37245465 -33.56445312 237.81054688 C-35.53925229 236.82069104 -37.5138682 235.83046951 -39.48828125 234.83984375 C-40.89597527 234.13516212 -40.89597527 234.13516212 -42.33210754 233.41624451 C-43.19357895 232.98231888 -44.05505035 232.54839325 -44.94262695 232.10131836 C-46.0846331 231.52745644 -46.0846331 231.52745644 -47.24971008 230.94200134 C-49 230 -49 230 -50 229 C-50.12714202 227.14159286 -50.18414955 225.27836762 -50.21446228 223.41586304 C-50.23606918 222.20243225 -50.25767609 220.98900146 -50.27993774 219.73880005 C-50.29873103 218.38104534 -50.31730889 217.02328764 -50.33569336 215.66552734 C-50.35831832 214.24458441 -50.38118683 212.82364534 -50.40428162 211.40270996 C-50.6076441 198.34239871 -50.71880667 185.28067405 -50.80750179 172.21913719 C-50.86836279 163.44926054 -50.95525031 154.68134831 -51.11108398 145.91259766 C-51.24716659 138.25509026 -51.33209852 130.59894415 -51.35790926 122.94024241 C-51.3731315 118.89532763 -51.4114299 114.85401845 -51.51078606 110.81022263 C-51.9774575 90.98774504 -50.18881169 76.47730037 -37.63523769 60.16108322 C-35.42842051 57.24461695 -33.58909781 54.19868111 -31.73046875 51.05078125 C-30.54992918 49.13774306 -29.36894852 47.22497698 -28.1875 45.3125 C-23.86945231 38.31389524 -19.5701462 31.30500495 -15.3125 24.26953125 C-14.73052605 23.30830101 -14.73052605 23.30830101 -14.13679504 22.32765198 C-12.25310592 19.21546029 -10.37208021 16.10170132 -8.49487305 12.9855957 C-7.81980713 11.86886475 -7.14474121 10.75213379 -6.44921875 9.6015625 C-5.85455811 8.61494629 -5.25989746 7.62833008 -4.6472168 6.61181641 C-3.19301979 4.30605094 -1.72372571 2.11146246 0 0 Z " fill="#FDFEFE" transform="translate(595,197)"/>
<path d="M0 0 C0 32.34 0 64.68 0 98 C-22.54655531 109.86660806 -22.54655531 109.86660806 -33.14086914 115.16308594 C-35.12540731 116.15648962 -37.10661478 117.15635827 -39.08789062 118.15625 C-40.36178523 118.79465797 -41.63586587 119.43269489 -42.91015625 120.0703125 C-44.59830444 120.91746826 -44.59830444 120.91746826 -46.32055664 121.78173828 C-49 123 -49 123 -51 123 C-51 90.66 -51 58.32 -51 25 C-38.6559375 18.8125 -38.6559375 18.8125 -26.0625 12.5 C-23.46125244 11.19482422 -20.86000488 9.88964844 -18.17993164 8.54492188 C-16.13175248 7.51937286 -14.08349917 6.49397189 -12.03515625 5.46875 C-10.96068237 4.92895508 -9.8862085 4.38916016 -8.7791748 3.83300781 C-7.76415894 3.32543945 -6.74914307 2.81787109 -5.70336914 2.29492188 C-4.81734512 1.85079956 -3.93132111 1.40667725 -3.01844788 0.94909668 C-1 0 -1 0 0 0 Z " fill="#FDFDFE" transform="translate(655,330)"/>
<path d="M0 0 C0.66 0 1.32 0 2 0 C2.44309997 8.88346965 2.77915613 17.76306741 2.98443127 26.65522957 C3.08304447 30.78636594 3.21628802 34.90987782 3.43334961 39.03662109 C4.79383579 65.5909451 4.79383579 65.5909451 0.21276855 72.82049561 C-4.07223153 77.2945156 -8.9737571 80.13326883 -14.54046631 82.75009155 C-18.58910852 84.80756778 -22.05630725 87.59045431 -25.625 90.375 C-31.8138621 95 -31.8138621 95 -33 95 C-33.30238548 86.04658368 -33.5327603 77.09494552 -33.67355824 68.13752174 C-33.74116989 63.97704307 -33.83269483 59.82007728 -33.98071289 55.66162109 C-34.12290605 51.64124021 -34.19987213 47.62421546 -34.23340416 43.60151291 C-34.25726605 42.0741426 -34.30387486 40.54693877 -34.37449074 39.02101517 C-34.88949775 27.42154856 -34.88949775 27.42154856 -31.74884415 23.39653969 C-28.21876423 19.98439319 -24.18690911 17.5253857 -20 15 C-18.18924588 13.68425649 -16.38932414 12.35322032 -14.609375 10.99609375 C-12.9906559 9.8084326 -11.37088875 8.62219836 -9.75 7.4375 C-8.09840812 6.22861593 -6.44733616 5.0190211 -4.796875 3.80859375 C-4.08885742 3.29095459 -3.38083984 2.77331543 -2.65136719 2.23999023 C-1.05489146 1.10184464 -1.05489146 1.10184464 0 0 Z " fill="#FAFCFC" transform="translate(637,251)"/>
<path d="M0 0 C0.33 0 0.66 0 1 0 C2.82316117 30.32337763 2.82316117 30.32337763 -2.17260742 37.27392578 C-4.31846612 39.66014276 -6.64024566 41.82768714 -9 44 C-10.56463173 46.07180572 -12.08859268 48.17520063 -13.5625 50.3125 C-14.68316142 51.89315122 -15.82025525 53.46294353 -17 55 C-17.33 55 -17.66 55 -18 55 C-19.82316117 24.67662237 -19.82316117 24.67662237 -14.82739258 17.72607422 C-12.68153388 15.33985724 -10.35975434 13.17231286 -8 11 C-6.43536827 8.92819428 -4.91140732 6.82479937 -3.4375 4.6875 C-2.31683858 3.10684878 -1.17974475 1.53705647 0 0 Z " fill="#F4F8FA" transform="translate(621,205)"/>
<path d="M0 0 C0.66 0 1.32 0 2 0 C2.94302252 10.95702361 1.99071106 17.99757353 -5 27 C-5.33 27 -5.66 27 -6 27 C-6.90964136 10.34345599 -6.90964136 10.34345599 -1 3 C-0.67 2.01 -0.34 1.02 0 0 Z " fill="#D4E8F0" transform="translate(609,179)"/>
</svg>
