<?xml version="1.0" encoding="UTF-8"?>
<svg version="1.1" xmlns="http://www.w3.org/2000/svg" width="200" height="200">
<path d="M0 0 C1.31081039 -0.00708481 2.62162079 -0.01416962 3.97215271 -0.02146912 C5.41792332 -0.01917547 6.8636936 -0.0166658 8.3094635 -0.01396179 C9.8373947 -0.01831067 11.36532372 -0.0234944 12.89324951 -0.02944946 C17.03787682 -0.04283157 21.1824129 -0.04341904 25.3270576 -0.04088616 C28.78881264 -0.03981596 32.25054926 -0.04470106 35.71230036 -0.04949158 C43.87979325 -0.06058395 52.04724016 -0.06102564 60.21473694 -0.05497742 C68.63707508 -0.04893634 77.05924623 -0.06125263 85.48155588 -0.08254749 C92.71652094 -0.10016681 99.95143286 -0.10616434 107.18641859 -0.10290974 C111.50586556 -0.10109734 115.82519338 -0.1037288 120.1446209 -0.11762428 C124.20681352 -0.1302035 128.26874588 -0.12825774 132.33093452 -0.11521339 C133.82003492 -0.11284829 135.30915365 -0.11557995 136.79823303 -0.12383652 C138.83429603 -0.1343102 140.87043323 -0.12439722 142.90649414 -0.11352539 C144.61405333 -0.113777 144.61405333 -0.113777 146.35610867 -0.1140337 C150.78003988 0.41047569 154.20788052 1.85834816 157.26673889 5.13569641 C160.76054916 11.07517387 160.81334591 16.13356868 160.80726624 22.89082336 C160.81398346 23.96134949 160.82070068 25.03187561 160.82762146 26.13484192 C160.84661513 29.67293442 160.85052645 33.21083735 160.85267639 36.74897766 C160.85910358 39.21131468 160.86583188 41.67365092 160.87284851 44.13598633 C160.88482487 49.29826121 160.88852898 54.46046916 160.88734436 59.62275696 C160.88714121 66.23031459 160.91443865 72.83744195 160.94888878 79.44489765 C160.97115151 84.53134117 160.97518207 89.61768107 160.97412491 94.70416832 C160.97648198 97.13977223 160.98531142 99.57537896 161.00078964 102.01093483 C161.02043505 105.42172289 161.01461627 108.83158212 161.00257874 112.24238586 C161.01381775 113.24370041 161.02505676 114.24501495 161.03663635 115.27667236 C160.98144356 121.44627194 160.03498084 126.10673868 156.51673889 131.26069641 C152.19152927 135.32377212 147.90106231 135.40116217 142.22377014 135.35835266 C141.16472725 135.35623024 141.16472725 135.35623024 140.08428955 135.35406494 C137.83256263 135.34847405 135.58093568 135.33592329 133.32923889 135.32319641 C131.80124554 135.31818023 130.27325062 135.31361753 128.74525452 135.30952454 C125.00234661 135.29935912 121.25965447 135.2797821 117.51673889 135.26069641 C117.51673889 142.85069641 117.51673889 150.44069641 117.51673889 158.26069641 C112.51673889 160.26069641 112.51673889 160.26069641 108.95814514 158.85444641 C106.99518113 157.8280339 105.06486885 156.7526538 103.13197327 155.67085266 C99.8720627 153.96974197 98.05653879 153.15543543 94.39173889 153.87007141 C93.44298889 154.32897766 92.49423889 154.78788391 91.51673889 155.26069641 C90.58732483 155.70929016 89.65791077 156.15788391 88.70033264 156.62007141 C86.86331818 157.55033763 85.02998181 158.48790148 83.20033264 159.43257141 C80.51673889 160.26069641 80.51673889 160.26069641 75.51673889 158.26069641 C75.51673889 150.67069641 75.51673889 143.08069641 75.51673889 135.26069641 C73.06413635 135.27640686 70.61153381 135.29211731 68.08460999 135.30830383 C59.97417794 135.35805035 51.8637391 135.39116565 43.75319481 135.41613293 C38.83656609 135.43177764 33.92009392 135.45299417 29.0035553 135.48701477 C24.25733022 135.51965071 19.51125556 135.53755842 14.76492691 135.54532814 C12.95565549 135.55086404 11.14639215 135.56167433 9.33718491 135.57788658 C6.79968838 135.59971724 4.26281057 135.602661 1.72523499 135.60127258 C0.98004608 135.61205841 0.23485718 135.62284424 -0.53291321 135.63395691 C-5.27689958 135.60593639 -8.54080898 134.93086866 -12.48326111 132.26069641 C-17.42009982 127.0309216 -17.05850419 121.74869528 -17.01670837 114.95039368 C-17.02532394 113.81959381 -17.03393951 112.68879395 -17.04281616 111.52372742 C-17.06549117 107.79128534 -17.05873375 104.05959314 -17.04966736 100.32710266 C-17.05490233 97.72927629 -17.06117834 95.13145183 -17.06845093 92.53363037 C-17.07885814 87.09058175 -17.07461895 81.64781881 -17.05967712 76.20478821 C-17.04275871 69.92432562 -17.05859031 63.64455823 -17.0909 57.36417156 C-17.12086805 51.30819182 -17.12276996 45.2525647 -17.11340141 39.19650078 C-17.11258164 36.62610406 -17.11944981 34.05569289 -17.13417244 31.48533821 C-17.15160918 27.88984272 -17.13708008 24.29582978 -17.11436462 20.70039368 C-17.12605682 19.64095047 -17.13774902 18.58150726 -17.14979553 17.48995972 C-17.07751945 11.86157161 -16.50163823 8.10528555 -13.04310513 3.58508205 C-9.10341734 0.24008994 -5.00090089 0.0090213 0 0 Z M-5.48326111 10.26069641 C-7.18944391 13.23673616 -7.7328829 15.36432958 -7.73049927 18.78366089 C-7.73469376 19.68513855 -7.73888824 20.58661621 -7.74320984 21.51541138 C-7.73759033 22.49684616 -7.73197083 23.47828094 -7.72618103 24.48945618 C-7.72807938 25.52885345 -7.72997772 26.56825073 -7.73193359 27.6391449 C-7.73564011 31.07687406 -7.72493919 34.51439225 -7.71372986 37.95210266 C-7.71253793 40.33816503 -7.71208492 42.72422787 -7.71234131 45.11029053 C-7.71077668 50.11122067 -7.7024881 55.1120792 -7.68907166 60.11299133 C-7.67207272 66.53146319 -7.6682576 72.94985639 -7.66901684 79.36834812 C-7.66874526 84.2950211 -7.66326618 89.2216768 -7.6560154 94.14834404 C-7.65282776 96.51549588 -7.6508611 98.88264968 -7.65012169 101.24980354 C-7.64795967 104.55368022 -7.63921859 107.85747255 -7.62852478 111.16133118 C-7.62897797 112.14479019 -7.62943115 113.12824921 -7.62989807 114.14151001 C-7.62563309 115.04016785 -7.6213681 115.93882568 -7.61697388 116.86471558 C-7.61529803 117.64580972 -7.61362219 118.42690386 -7.61189556 119.23166752 C-7.55706877 121.46522502 -7.55706877 121.46522502 -6.48326111 124.26069641 C-3.43307133 125.7857913 -0.25776498 125.39045585 3.08753967 125.3742218 C3.86811737 125.37436783 4.64869507 125.37451385 5.45292664 125.37466431 C8.03932958 125.37396627 10.62566099 125.36617898 13.21205139 125.35835266 C15.0028123 125.35648809 16.79357372 125.35506437 18.58433533 125.35406494 C23.3025808 125.35024282 28.0207956 125.34041512 32.73902893 125.32936096 C37.55164678 125.3191403 42.36426957 125.31456591 47.17689514 125.30952454 C56.62352322 125.2987926 66.07012851 125.28171981 75.51673889 125.26069641 C75.59480223 123.3538014 75.65032786 121.44597553 75.69642639 119.53804016 C75.72978088 118.47577209 75.76313538 117.41350403 75.79750061 116.31904602 C75.48719839 112.93891044 74.70223675 111.46667402 72.64173889 108.82319641 C67.93430683 102.62861835 67.07919437 95.71818119 67.82923889 88.07710266 C69.28770031 80.92152634 72.07032561 75.20187655 77.51673889 70.26069641 C85.65258944 65.11251784 92.94352797 63.42114564 102.51673889 64.26069641 C110.46776044 66.30112593 116.43405383 70.0929918 121.26673889 76.76069641 C125.52022637 84.10762933 126.25161069 92.43968103 124.45423889 100.63569641 C123.39787016 104.28064439 122.27213746 106.87109639 119.82923889 109.76069641 C117.17149982 112.91376772 117.27112814 115.43626618 117.37220764 119.47944641 C117.39307434 120.56161438 117.41394104 121.64378235 117.43544006 122.75874329 C117.47568298 123.99721008 117.47568298 123.99721008 117.51673889 125.26069641 C121.73423108 125.33488775 125.951377 125.38931681 130.16932678 125.42549133 C131.60396441 125.4405723 133.03855598 125.46104021 134.47303772 125.48701477 C136.53589748 125.52343078 138.59814747 125.54042884 140.66127014 125.55366516 C141.90239563 125.56937561 143.14352112 125.58508606 144.42225647 125.60127258 C147.44504778 125.53229197 147.44504778 125.53229197 149.18675518 124.01932526 C150.87511231 121.78682156 150.89154612 120.56411323 150.89096069 117.78205872 C150.89797501 116.86512741 150.90498932 115.94819611 150.91221619 115.003479 C150.90457245 113.99974747 150.89692871 112.99601593 150.88905334 111.96186829 C150.89270401 110.90310989 150.89635468 109.8443515 150.90011597 108.75350952 C150.9082379 105.24532654 150.89459734 101.73760306 150.88002014 98.22944641 C150.87950173 95.79711406 150.88001868 93.36478128 150.88153076 90.93244934 C150.88144096 85.8313523 150.87099603 80.73041306 150.85292053 75.62934875 C150.83023327 69.08188501 150.82968851 62.53465196 150.83643818 55.98715973 C150.83977541 50.96353597 150.83315269 45.93996506 150.82330894 40.91635132 C150.81945241 38.50175249 150.8183106 36.08714778 150.81989479 33.67254639 C150.82026454 30.3014246 150.80767025 26.93060156 150.79139709 23.55952454 C150.79387451 22.555793 150.79635193 21.55206146 150.79890442 20.51791382 C150.79181961 19.60098251 150.7847348 18.68405121 150.7774353 17.73933411 C150.77538243 16.94219246 150.77332956 16.14505081 150.77121449 15.32375336 C150.6353482 12.95255396 150.6353482 12.95255396 148.51673889 10.26069641 C145.74453204 9.81149475 145.74453204 9.81149475 142.42979431 9.89993286 C141.13126526 9.89580887 139.83273621 9.89168488 138.49485779 9.88743591 C137.04755959 9.89805411 135.60026347 9.90895855 134.15296936 9.92012024 C132.63545244 9.92096606 131.11793429 9.92049224 129.60041809 9.91879272 C125.47246218 9.9179296 121.34476613 9.93560642 117.21687078 9.9565146 C112.90604299 9.97522874 108.59520968 9.97702767 104.28434753 9.98059082 C96.11743443 9.9899268 87.95064135 10.01456152 79.78378117 10.04463929 C70.48767707 10.07813506 61.19156733 10.09465715 51.89541793 10.10972559 C32.76912345 10.14110978 13.64294081 10.19390036 -5.48326111 10.26069641 Z " fill="#4A8FE2" transform="translate(28.483261108398438,19.739303588867188)"/>
<path d="M0 0 C0.89038467 -0.00571014 1.78076935 -0.01142029 2.69813538 -0.01730347 C3.68257629 -0.01842133 4.66701721 -0.01953918 5.68128967 -0.02069092 C6.71210159 -0.02565582 7.74291351 -0.03062073 8.80496216 -0.03573608 C12.23127396 -0.05039897 15.65753948 -0.05716612 19.08387756 -0.06268311 C21.45420331 -0.06843061 23.82452904 -0.07418838 26.19485474 -0.07995605 C31.17080401 -0.09047743 36.14673708 -0.09631283 41.12269592 -0.09979248 C47.51340093 -0.10528339 53.90389354 -0.12931953 60.29453182 -0.15776443 C65.19200272 -0.17634337 70.08942195 -0.18159385 74.98692513 -0.18312836 C77.34375229 -0.18616553 79.70057833 -0.19422956 82.05737114 -0.20731354 C85.34754201 -0.224277 88.63718716 -0.22251767 91.92738342 -0.21600342 C92.90980011 -0.2252182 93.8922168 -0.23443298 94.90440369 -0.243927 C95.79760818 -0.23835785 96.69081268 -0.2327887 97.61108398 -0.22705078 C98.77889105 -0.22925062 98.77889105 -0.22925062 99.97029018 -0.2314949 C100.91016828 -0.04738619 100.91016828 -0.04738619 101.86903381 0.14044189 C103.86903381 3.14044189 103.86903381 3.14044189 103.61903381 5.20294189 C102.86903381 7.14044189 102.86903381 7.14044189 100.86903381 9.14044189 C99.00711155 9.39491749 99.00711155 9.39491749 96.70046997 9.40113831 C95.39024117 9.41176552 95.39024117 9.41176552 94.05354309 9.42260742 C93.09296997 9.42013 92.13239685 9.41765259 91.14271545 9.4151001 C90.13287094 9.42021103 89.12302643 9.42532196 88.08258057 9.43058777 C84.73139076 9.4445324 81.3804055 9.44352333 78.02919006 9.44122314 C75.70752892 9.44510741 73.38586849 9.44944151 71.06420898 9.45420837 C66.19256794 9.46168108 61.32099935 9.4613717 56.44935608 9.45611572 C50.19663975 9.45031986 43.94421951 9.46725005 37.69155216 9.4904604 C32.89525611 9.50516971 28.09903182 9.50607325 23.30271721 9.50295067 C20.99696198 9.5034653 18.69120289 9.50872939 16.38546944 9.51876259 C13.16503104 9.53105524 9.94517529 9.52437828 6.7247467 9.51275635 C5.76619781 9.52040009 4.80764893 9.52804382 3.8200531 9.53591919 C2.94374741 9.52890488 2.06744171 9.52189056 1.1645813 9.5146637 C0.40301255 9.51483144 -0.35855619 9.51499918 -1.14320278 9.515172 C-3.68514399 9.03596914 -4.60430283 8.20043825 -6.13096619 6.14044189 C-5.64344893 1.02151067 -4.9931595 0.01908727 0 0 Z " fill="#4A90E2" transform="translate(51.13096618652344,53.85955810546875)"/>
<path d="M0 0 C2.05013493 -0.00971283 4.09927004 -0.04074007 6.14916992 -0.07226562 C7.43887695 -0.07742187 8.72858398 -0.08257812 10.05737305 -0.08789062 C11.83712524 -0.10190918 11.83712524 -0.10190918 13.65283203 -0.11621094 C16.6237793 0.24023438 16.6237793 0.24023438 18.54589844 1.59667969 C19.6237793 3.24023438 19.6237793 3.24023438 19.4362793 5.86523438 C18.6237793 8.24023438 18.6237793 8.24023438 16.6237793 9.24023438 C12.50094836 9.47402322 8.3765085 9.46859969 4.24755859 9.48046875 C2.19742367 9.49018158 0.14828856 9.52120882 -1.90161133 9.55273438 C-3.19131836 9.55789062 -4.48102539 9.56304687 -5.80981445 9.56835938 C-7.58956665 9.58237793 -7.58956665 9.58237793 -9.40527344 9.59667969 C-12.3762207 9.24023438 -12.3762207 9.24023438 -14.29833984 7.88378906 C-15.3762207 6.24023438 -15.3762207 6.24023438 -15.1887207 3.61523438 C-13.26476109 -2.00864757 -4.96410683 0.0142698 0 0 Z " fill="#498FE2" transform="translate(60.376220703125,82.759765625)"/>
<path d="M0 0 C0.93199219 -0.00257812 1.86398438 -0.00515625 2.82421875 -0.0078125 C3.80003906 -0.00007813 4.77585937 0.00765625 5.78125 0.015625 C6.75707031 0.00789063 7.73289062 0.00015625 8.73828125 -0.0078125 C9.67027344 -0.00523438 10.60226563 -0.00265625 11.5625 0 C12.41908203 0.00225586 13.27566406 0.00451172 14.15820312 0.00683594 C16.28125 0.265625 16.28125 0.265625 18.28125 2.265625 C18.53125 4.765625 18.53125 4.765625 18.28125 7.265625 C15.28753497 10.25934003 12.47630771 9.55818848 8.3828125 9.58789062 C7.35929687 9.58466797 6.33578125 9.58144531 5.28125 9.578125 C3.74597656 9.60229492 3.74597656 9.60229492 2.1796875 9.62695312 C0.71402344 9.62791992 0.71402344 9.62791992 -0.78125 9.62890625 C-1.67972656 9.63188721 -2.57820313 9.63486816 -3.50390625 9.63793945 C-4.60025391 9.4536438 -4.60025391 9.4536438 -5.71875 9.265625 C-7.71875 6.265625 -7.71875 6.265625 -7.46875 4.203125 C-5.90454086 0.1622514 -3.98286259 0.0104891 0 0 Z " fill="#4A90E1" transform="translate(52.71875,111.734375)"/>
</svg>
