<?xml version="1.0" encoding="UTF-8"?>
<svg version="1.1" xmlns="http://www.w3.org/2000/svg" width="320" height="320">
<path d="M0 0 C1.01030273 -0.03673828 1.01030273 -0.03673828 2.04101562 -0.07421875 C8.34578031 -0.11041836 13.20764151 1.79016014 17.9831543 5.93261719 C19.76812632 7.71331112 21.45403144 9.54957197 23.125 11.4375 C23.7334375 12.10652344 24.341875 12.77554688 24.96875 13.46484375 C29.06959751 18.00973208 32.95479886 22.70425644 36.7734375 27.48828125 C40.95875669 32.49305614 45.48369594 37.18335747 49.95703125 41.9296875 C52.89782579 45.05275922 55.75149177 48.23772092 58.55078125 51.48828125 C60.56623772 53.81158787 62.62598462 56.09248465 64.6875 58.375 C67.95454335 61.99523723 71.18270776 65.64483565 74.3828125 69.32421875 C76.41708141 71.63588797 78.4897231 73.9103143 80.5625 76.1875 C83.61608867 79.56440982 86.53179205 83.00717132 89.375 86.5625 C94.27753486 92.62820218 99.61008037 98.25664977 104.95703125 103.9296875 C107.89782579 107.05275922 110.75149177 110.23772092 113.55078125 113.48828125 C115.56623772 115.81158787 117.62598462 118.09248465 119.6875 120.375 C123.5622646 124.67377082 127.40692012 128.99313505 131.1875 133.375 C131.6294873 133.88530762 132.07147461 134.39561523 132.52685547 134.92138672 C134.02269208 136.65186437 135.51195504 138.38781987 137 140.125 C137.48065918 140.68034424 137.96131836 141.23568848 138.45654297 141.80786133 C144.25781525 148.61514053 144.80680131 153.74783205 144.5546875 162.44921875 C143.96619365 168.7410945 141.97100432 171.98284954 137.24267578 176.04638672 C132.03728237 180.10984622 126.70995 183.62987874 121 186.9375 C113.72672081 191.22660755 106.54739687 195.63261239 99.4375 200.1875 C91.75521948 205.10508404 84.05100111 209.98379092 76.3125 214.8125 C74.81638184 215.74606323 74.81638184 215.74606323 73.29003906 216.69848633 C71.26674663 217.96051906 69.24330884 219.22231879 67.21972656 220.48388672 C63.20462156 222.98799327 59.19195639 225.49599106 55.1796875 228.00463867 C53.19314685 229.24638866 51.20617109 230.48744285 49.21875 231.7277832 C44.03541579 234.9635408 38.85994856 238.21103028 33.6953125 241.4765625 C32.62667969 242.15009766 31.55804688 242.82363281 30.45703125 243.51757812 C28.42861089 244.79636487 26.40239665 246.07866092 24.37890625 247.36523438 C7.06491471 258.26173114 7.06491471 258.26173114 -0.8125 257.5 C-1.905625 257.42007812 -2.99875 257.34015625 -4.125 257.2578125 C-12.90718048 255.15529895 -20.45012039 249.87156534 -27.9375 245 C-29.87962798 243.75039964 -31.82235758 242.50173392 -33.765625 241.25390625 C-35.25932617 240.29315186 -35.25932617 240.29315186 -36.78320312 239.31298828 C-41.72758508 236.1498271 -46.70659676 233.04272202 -51.6875 229.9375 C-52.68410645 229.31568848 -53.68071289 228.69387695 -54.70751953 228.05322266 C-56.73159787 226.79057556 -58.75584938 225.52820601 -60.78027344 224.26611328 C-65.79340541 221.13956576 -70.80277243 218.00699839 -75.8125 214.875 C-77.81248171 213.62497074 -79.81248172 212.37497074 -81.8125 211.125 C-85.8125 208.625 -89.8125 206.125 -93.8125 203.625 C-94.8039502 203.00560547 -95.79540039 202.38621094 -96.81689453 201.74804688 C-98.80319921 200.50608033 -100.78856235 199.2626066 -102.77294922 198.01757812 C-107.97550576 194.75624849 -113.19511845 191.52791677 -118.4453125 188.34375 C-119.53199219 187.67923828 -120.61867188 187.01472656 -121.73828125 186.33007812 C-123.81044275 185.06375721 -125.88825901 183.80662476 -127.97265625 182.56054688 C-134.86273721 178.33103901 -140.53321556 173.95295472 -143.8125 166.375 C-144.58077686 159.61564105 -145.37767965 151.71146407 -141.625 145.75 C-140.41342789 144.24207212 -139.12991293 142.79139565 -137.8125 141.375 C-137.3189502 140.83601074 -136.82540039 140.29702148 -136.31689453 139.74169922 C-134.06112842 137.27983599 -131.80206794 134.82452314 -129.48364258 132.42138672 C-126.14528436 128.94799046 -123.42319235 125.44908492 -120.8125 121.375 C-119.1688186 119.68566078 -117.4982124 118.02240076 -115.8125 116.375 C-112.07051145 112.28315073 -108.40411258 108.1406376 -104.9375 103.8125 C-104.23625 103.008125 -103.535 102.20375 -102.8125 101.375 C-102.1525 101.375 -101.4925 101.375 -100.8125 101.375 C-100.54308594 100.7871875 -100.27367187 100.199375 -99.99609375 99.59375 C-98.80952607 97.36942511 -97.55453141 95.74753379 -95.875 93.875 C-95.25753906 93.1840625 -94.64007813 92.493125 -94.00390625 91.78125 C-90.96575012 88.44523543 -87.91750935 85.11855382 -84.86157227 81.79882812 C-82.30809052 79.02164859 -79.78330763 76.22593188 -77.3125 73.375 C-74.37405935 69.98449156 -71.35133698 66.67533018 -68.3125 63.375 C-64.67082111 59.41910817 -61.077505 55.42938376 -57.5546875 51.3671875 C-55.49749601 49.01479365 -53.40653085 46.69465034 -51.3125 44.375 C-48.05160109 40.76157148 -44.8280589 37.12018904 -41.63671875 33.4453125 C-39.49754184 31.01755284 -37.3092006 28.63729919 -35.125 26.25 C-32.74043109 23.61527327 -30.46853806 21.06431703 -28.5625 18.0625 C-26.58578169 15.02682545 -24.46389745 12.84963762 -21.8125 10.375 C-21.10480469 9.70855469 -20.39710938 9.04210937 -19.66796875 8.35546875 C-18.89066406 7.64003906 -18.11335938 6.92460938 -17.3125 6.1875 C-16.5803125 5.51332031 -15.848125 4.83914062 -15.09375 4.14453125 C-10.33775862 0.4553804 -5.8838686 0.01107031 0 0 Z " fill="#65DCFE" transform="translate(159.8125,31.625)"/>
<path d="M0 0 C7.38164777 -0.19196229 12.07489313 0.59340413 17.79638672 5.55908203 C19.58141038 7.33907036 21.26683823 9.1749186 22.9375 11.0625 C23.5459375 11.73152344 24.154375 12.40054688 24.78125 13.08984375 C28.88209751 17.63473208 32.76729886 22.32925644 36.5859375 27.11328125 C40.77125669 32.11805614 45.29619594 36.80835747 49.76953125 41.5546875 C52.71032579 44.67775922 55.56399177 47.86272092 58.36328125 51.11328125 C60.37873772 53.43658787 62.43848462 55.71748465 64.5 58 C67.76704335 61.62023723 70.99520776 65.26983565 74.1953125 68.94921875 C76.22958141 71.26088797 78.3022231 73.5353143 80.375 75.8125 C83.42858867 79.18940982 86.34429205 82.63217132 89.1875 86.1875 C94.09003486 92.25320218 99.42258037 97.88164977 104.76953125 103.5546875 C107.71032579 106.67775922 110.56399177 109.86272092 113.36328125 113.11328125 C115.37873772 115.43658787 117.43848462 117.71748465 119.5 120 C123.3747646 124.29877082 127.21942012 128.61813505 131 133 C131.4419873 133.51030762 131.88397461 134.02061523 132.33935547 134.54638672 C133.83519208 136.27686437 135.32445504 138.01281987 136.8125 139.75 C137.29315918 140.30534424 137.77381836 140.86068848 138.26904297 141.43286133 C144.07031525 148.24014053 144.61930131 153.37283205 144.3671875 162.07421875 C143.77869365 168.3660945 141.78350432 171.60784954 137.05517578 175.67138672 C131.84978237 179.73484622 126.52245 183.25487874 120.8125 186.5625 C113.53922081 190.85160755 106.35989687 195.25761239 99.25 199.8125 C91.56771948 204.73008404 83.86350111 209.60879092 76.125 214.4375 C74.62888184 215.37106323 74.62888184 215.37106323 73.10253906 216.32348633 C71.07924663 217.58551906 69.05580884 218.84731879 67.03222656 220.10888672 C63.01712156 222.61299327 59.00445639 225.12099106 54.9921875 227.62963867 C53.00564685 228.87138866 51.01867109 230.11244285 49.03125 231.3527832 C43.84791579 234.5885408 38.67244856 237.83603028 33.5078125 241.1015625 C32.43917969 241.77509766 31.37054688 242.44863281 30.26953125 243.14257812 C28.24111089 244.42136487 26.21489665 245.70366092 24.19140625 246.99023438 C6.87741471 257.88673114 6.87741471 257.88673114 -1 257.125 C-2.093125 257.04507812 -3.18625 256.96515625 -4.3125 256.8828125 C-13.09462295 254.78031273 -20.63772268 249.49664063 -28.125 244.625 C-30.05669843 243.38189017 -31.98901272 242.13973693 -33.921875 240.8984375 C-34.91638672 240.25874023 -35.91089844 239.61904297 -36.93554688 238.95996094 C-42.05750123 235.6840647 -47.21571296 232.46666339 -52.375 229.25 C-53.3748291 228.62617432 -54.3746582 228.00234863 -55.40478516 227.35961914 C-57.35007077 226.1461803 -59.29554021 224.93303609 -61.24121094 223.72021484 C-65.32955435 221.17096992 -69.41480967 218.61679347 -73.5 216.0625 C-74.78123271 215.26169109 -76.06248059 214.46090645 -77.34375 213.66015625 C-78.2203125 213.11230469 -79.096875 212.56445312 -80 212 C-78.68 211.67 -77.36 211.34 -76 211 C-76 211.66 -76 212.32 -76 213 C-75.0409375 213.185625 -75.0409375 213.185625 -74.0625 213.375 C-72.39528714 213.71524752 -70.72978271 214.07224177 -69.0859375 214.51171875 C-55.49755112 217.9952869 -42.26978649 216.30936282 -30.17871094 209.25952148 C-26.68491907 207.14249727 -23.22848786 204.97119823 -19.78466797 202.77392578 C-16.94266908 200.9634783 -14.08540909 199.17976985 -11.22265625 197.40234375 C-6.16085694 194.25700241 -1.11101339 191.09306032 3.93554688 187.92333984 C8.95231081 184.77467299 13.97644847 181.63782166 19 178.5 C25.1299335 174.66960906 31.25919594 170.83815261 37.38671875 167.00390625 C47.56934372 160.63350711 57.75200149 154.26488972 68 148 C67.431775 144.33089002 66.05620402 142.75521765 63.375 140.25 C60.00582162 137.00649257 56.88704833 133.66580112 53.83984375 130.12109375 C51.80491181 127.77508942 49.71709033 125.4826355 47.625 123.1875 C44.53363199 119.76770672 41.57540968 116.28041476 38.6875 112.6875 C34.27628601 107.2333545 29.55986354 102.11740864 24.77734375 96.9921875 C22.06728304 94.0856406 19.4492532 91.10874139 16.8515625 88.1015625 C13.92681863 84.78191651 10.91724121 81.53980433 7.90600586 78.29858398 C6.59204325 76.87668282 5.29569912 75.43856334 4 74 C3.29675598 73.25893509 2.59351196 72.51787018 1.86895752 71.75434875 C-0.4838704 68.28690309 -0.48456392 66.26411627 -0.45410156 62.09838867 C-0.45468567 61.42466217 -0.45526978 60.75093567 -0.45587158 60.05679321 C-0.45309826 57.84331644 -0.4220454 55.63120845 -0.390625 53.41796875 C-0.38315985 51.87812536 -0.37746821 50.33827244 -0.37347412 48.79841614 C-0.35823912 44.75564101 -0.3189765 40.71344541 -0.2746582 36.67089844 C-0.23365895 32.54174641 -0.21545322 28.41250026 -0.1953125 24.28320312 C-0.15247948 16.18853684 -0.08425485 8.09434062 0 0 Z " fill="#074793" transform="translate(160,32)"/>
<path d="M0 0 C0.33 0 0.66 0 1 0 C1 39.93 1 79.86 1 121 C-3.35312485 119.54895838 -5.9218927 118.63676099 -9.5546875 116.26953125 C-10.40458252 115.72143799 -11.25447754 115.17334473 -12.13012695 114.60864258 C-13.03593506 114.01591553 -13.94174316 113.42318848 -14.875 112.8125 C-16.84439288 111.54064535 -18.81446953 110.26984897 -20.78515625 109 C-21.80496582 108.34128906 -22.82477539 107.68257813 -23.87548828 107.00390625 C-28.99012149 103.72363516 -34.15228939 100.52039928 -39.3125 97.3125 C-48.94416664 91.31275162 -58.50122493 85.20775925 -68 79 C-66.49523474 73.71817296 -63.03536639 70.5219706 -59.3125 66.6875 C-58.03299811 65.3445651 -56.75434172 64.00082409 -55.4765625 62.65625 C-54.86844727 62.01945312 -54.26033203 61.38265625 -53.63378906 60.7265625 C-51.22312578 58.17901158 -48.92487276 55.54374393 -46.63671875 52.88671875 C-44.62126228 50.56341213 -42.56151538 48.28251535 -40.5 46 C-35.68985199 40.66437363 -30.94019763 35.28413119 -26.28515625 29.8125 C-20.45535699 22.96608599 -14.53297697 16.24134219 -8.421875 9.64453125 C-6.35261224 7.38502982 -4.34757071 5.09360186 -2.375 2.75 C-1.59125 1.8425 -0.8075 0.935 0 0 Z " fill="#C9F7FE" transform="translate(159,101)"/>
<path d="M0 0 C1.65 1.65 3.3 3.3 5 5 C5.58523437 5.57363281 6.17046875 6.14726563 6.7734375 6.73828125 C10.39620306 10.29919472 13.79958714 13.98629272 17.1171875 17.83203125 C19.2157532 20.24842951 21.354397 22.62529024 23.5 25 C28.29907792 30.32334693 33.0407795 35.68863339 37.6796875 41.15234375 C43.26998219 47.72796486 48.94642285 54.18943666 54.83056641 60.50415039 C58.161211 64.0793528 61.41588561 67.70604481 64.59765625 71.4140625 C65.98073957 73.05783942 65.98073957 73.05783942 67.74609375 74.4609375 C69 76 69 76 68.89819336 77.87939453 C67.59971627 80.94505695 65.7243177 81.77820416 62.8828125 83.46875 C61.27442505 84.43977661 61.27442505 84.43977661 59.63354492 85.43041992 C58.46406815 86.12034471 57.29455227 86.81020321 56.125 87.5 C54.92924654 88.21774626 53.73434627 88.93691575 52.5402832 89.6574707 C50.73546348 90.74626451 48.93013973 91.83410043 47.1219635 92.91731262 C42.09321689 95.92997053 37.1299219 99.03589605 32.1875 102.1875 C25.29624578 106.56217083 18.37655212 110.88902959 11.4375 115.1875 C10.52572998 115.75299561 9.61395996 116.31849121 8.67456055 116.90112305 C7.8319165 117.42230713 6.98927246 117.94349121 6.12109375 118.48046875 C5.3727124 118.94348389 4.62433105 119.40649902 3.85327148 119.88354492 C2 121 2 121 0 122 C0 81.74 0 41.48 0 0 Z " fill="#95BBC1" transform="translate(160,101)"/>
<path d="M0 0 C0 21.45 0 42.9 0 65 C-9.02140309 65 -9.02140309 65 -12.8671875 62.8984375 C-14.1351416 62.20959473 -14.1351416 62.20959473 -15.42871094 61.50683594 C-19.73259303 58.98465969 -23.9439352 56.34543418 -28.125 53.625 C-30.05669843 52.38189017 -31.98901272 51.13973693 -33.921875 49.8984375 C-34.91638672 49.25874023 -35.91089844 48.61904297 -36.93554688 47.95996094 C-42.05750123 44.6840647 -47.21571296 41.46666339 -52.375 38.25 C-53.3748291 37.62617432 -54.3746582 37.00234863 -55.40478516 36.35961914 C-57.35007077 35.1461803 -59.29554021 33.93303609 -61.24121094 32.72021484 C-65.32955435 30.17096992 -69.41480967 27.61679347 -73.5 25.0625 C-74.78123271 24.26169109 -76.06248059 23.46090645 -77.34375 22.66015625 C-78.2203125 22.11230469 -79.096875 21.56445312 -80 21 C-78.68 20.67 -77.36 20.34 -76 20 C-76 20.66 -76 21.32 -76 22 C-75.360625 22.12375 -74.72125 22.2475 -74.0625 22.375 C-72.39528714 22.71524752 -70.72978271 23.07224177 -69.0859375 23.51171875 C-55.20057276 27.07142135 -42.03246288 25.18090139 -29.7668457 18.00195312 C-25.47113626 15.39647219 -21.23250459 12.70652757 -17 10 C-14.6523266 8.52414539 -12.30103193 7.05425394 -9.94848633 5.58618164 C-8.54958497 4.71108881 -7.15346664 3.83152754 -5.76049805 2.94702148 C-1.10579972 0 -1.10579972 0 0 0 Z " fill="#215086" transform="translate(160,223)"/>
<path d="M0 0 C8.9854618 0 13.26466685 1.04014558 19.52734375 7.28515625 C20.67682286 8.53263243 21.81323165 9.79225603 22.9375 11.0625 C23.5459375 11.73152344 24.154375 12.40054688 24.78125 13.08984375 C28.88209751 17.63473208 32.76729886 22.32925644 36.5859375 27.11328125 C40.76008042 32.10469163 45.2720269 36.7828873 49.734375 41.515625 C53.25762093 45.25680367 56.67201501 49.08398759 60 53 C56.4923674 54.22604751 54.47796906 53.72699857 51 52.5625 C38.58598928 48.98976747 25.65872541 50.87266613 14.1875 56.6875 C9.59664159 59.35597846 6.04108114 62.55931157 2.4609375 66.4609375 C1.97882813 66.96882813 1.49671875 67.47671875 1 68 C0.67 68 0.34 68 0 68 C0 45.56 0 23.12 0 0 Z " fill="#0193E3" transform="translate(160,32)"/>
</svg>
