<?xml version="1.0" encoding="UTF-8"?>
<svg version="1.1" xmlns="http://www.w3.org/2000/svg" width="475" height="471">
<path d="M0 0 C156.75 0 313.5 0 475 0 C475 155.43 475 310.86 475 471 C318.25 471 161.5 471 0 471 C0 315.57 0 160.14 0 0 Z " fill="#00618B" transform="translate(0,0)"/>
<path d="M0 0 C156.75 0 313.5 0 475 0 C475 155.43 475 310.86 475 471 C318.25 471 161.5 471 0 471 C0 315.57 0 160.14 0 0 Z M56 56 C55.32839844 56.65226562 54.65679687 57.30453125 53.96484375 57.9765625 C36.09662931 76.45530819 30.83589929 103.77616487 30.85955811 128.45140076 C30.85658698 129.44307489 30.85361586 130.43474902 30.8505547 131.45647389 C30.8419498 134.74760272 30.84036647 138.03869483 30.83886719 141.32983398 C30.83423314 143.70291724 30.8292077 146.07599975 30.82382202 148.44908142 C30.80939025 155.54439479 30.80332084 162.63970032 30.79842651 169.73502573 C30.79583888 173.08911431 30.79204977 176.44320144 30.78830719 179.79728889 C30.77612387 190.96757448 30.76582296 202.13785821 30.7624321 213.30815029 C30.76221253 214.02132986 30.76199297 214.73450944 30.76176675 215.46930051 C30.76154847 216.18404953 30.76133019 216.89879856 30.7611053 217.63520664 C30.76066186 219.08322044 30.76021529 220.53123425 30.75976562 221.97924805 C30.7595442 222.69749133 30.75932277 223.4157346 30.75909463 224.15574283 C30.7551527 235.77484237 30.737713 247.39387896 30.7144061 259.01295423 C30.69059283 270.98249287 30.67822573 282.95200005 30.67706418 294.92156273 C30.67615296 301.62568426 30.67021506 308.32971131 30.65224457 315.03381157 C30.63564665 321.34829498 30.63366477 327.66262377 30.64238358 333.97712135 C30.64314775 336.27952873 30.63889433 338.58194483 30.62892532 340.88433075 C30.50744261 370.71902158 34.18955225 400.03143174 55 423 C55.73734375 423.83015625 56.4746875 424.6603125 57.234375 425.515625 C74.91076748 444.34733725 100.23144674 452.97859799 125.58677649 454.11604333 C132.68393727 454.30599568 139.78246122 454.2833342 146.8815918 454.2746582 C149.25379088 454.27901385 151.62598857 454.28419982 153.9981842 454.29014587 C160.39928509 454.3034567 166.80032665 454.30412331 173.20143867 454.30158257 C177.2118769 454.30077871 181.22230059 454.30293572 185.23273659 454.30657005 C186.23617227 454.30746284 186.23617227 454.30746284 187.25987938 454.30837366 C188.61956248 454.30958561 189.97924558 454.31079974 191.33892868 454.31201603 C204.04884263 454.32285613 216.75872995 454.32074613 229.46864537 454.31463119 C241.04795688 454.30946752 252.62718412 454.32070926 264.20647898 454.33972941 C276.14793588 454.35919126 288.08935308 454.36734912 300.03082591 454.36360615 C306.71421812 454.3617064 313.39752347 454.36433224 320.08090782 454.37832069 C326.37248855 454.39099802 332.66390208 454.38886224 338.95548058 454.37590981 C341.24779317 454.37356573 343.54011789 454.37619953 345.83241653 454.38453293 C375.95079667 454.48602094 404.65427809 450.87426926 428 430 C428.83273437 429.26136719 429.66546875 428.52273438 430.5234375 427.76171875 C442.47540358 416.52687063 449.86907253 402.359181 454.6875 386.8125 C454.99155762 385.86153442 454.99155762 385.86153442 455.30175781 384.89135742 C459.75466817 369.69087585 459.2890149 353.70757877 459.25878906 338.0390625 C459.2615043 335.65875136 459.26506821 333.27844106 459.26940918 330.89813232 C459.27847202 324.47670147 459.27501425 318.05533539 459.26865101 311.6339035 C459.26507663 307.61345681 459.26577301 303.59301825 459.26763153 299.5725708 C459.26809123 298.56696969 459.26809123 298.56696969 459.26856022 297.54105341 C459.26919976 296.17854166 459.26984819 294.8160299 459.2705054 293.45351815 C459.27618906 280.71990821 459.26968179 267.98632722 459.25890467 255.25272202 C459.24997095 244.36052417 459.25152355 233.46836896 459.26074219 222.57617188 C459.2714797 209.88368467 459.27563992 197.19122273 459.26951766 184.49873161 C459.26888066 183.14163081 459.26825191 181.78453001 459.26763153 180.4274292 C459.26732298 179.75995749 459.26701443 179.09248578 459.26669653 178.40478766 C459.26498 173.73333142 459.26796151 169.06189627 459.27259064 164.39044189 C459.27840192 158.08659211 459.27429843 151.78282224 459.26280212 145.47898102 C459.26017567 143.17650739 459.2608858 140.87402694 459.26532745 138.57155609 C459.28696111 126.20980959 458.97562063 114.22122588 457 102 C456.86546543 101.14957123 456.73093086 100.29914246 456.59231949 99.42294312 C452.8390608 77.65415146 438.76517597 57.71028235 421.5 44.5 C396.95962436 27.9361447 371.29190999 25.52764582 342.55078125 25.61181641 C340.17784383 25.6077397 337.80490832 25.60239172 335.43197632 25.59588623 C329.05179972 25.58233752 322.67177045 25.58745932 316.29159164 25.59702349 C312.29201326 25.60158587 308.29245555 25.6013351 304.2928772 25.5985527 C303.62459752 25.598093 302.95631785 25.59763331 302.26778728 25.59715968 C300.90931184 25.5962003 299.55083641 25.59522766 298.192361 25.5942419 C285.51579041 25.58572964 272.83928539 25.59545623 260.16272557 25.611643 C249.33468792 25.62504238 238.50674684 25.6227131 227.67871094 25.60888672 C215.04106533 25.59275671 202.40347688 25.58655322 189.76582241 25.59572351 C188.41292255 25.59667895 187.06002268 25.59762207 185.7071228 25.5985527 C184.70918299 25.59924694 184.70918299 25.59924694 183.69108278 25.59995521 C179.04946256 25.60252296 174.40788064 25.59807203 169.76626587 25.59111404 C163.49512833 25.58236786 157.22417087 25.5886043 150.95305252 25.60579681 C148.6688021 25.60972116 146.3845362 25.6086984 144.10029221 25.60200882 C110.36692361 25.51242133 80.24858223 30.87157081 56 56 Z " fill="#F7F7F7" transform="translate(0,0)"/>
<path d="M0 0 C0.33 0 0.66 0 1 0 C1 83.82 1 167.64 1 254 C-2.89434802 252.70188399 -6.11977851 251.56490794 -9.7043457 249.76928711 C-11.02019402 249.11367043 -11.02019402 249.11367043 -12.36262512 248.44480896 C-13.29096664 247.97704544 -14.21930817 247.50928192 -15.17578125 247.02734375 C-16.14154587 246.54423233 -17.10731049 246.06112091 -18.1023407 245.56336975 C-20.13468914 244.54568958 -22.16606877 243.52607262 -24.1965332 242.50463867 C-27.31687001 240.93530215 -30.44039227 239.37245465 -33.56445312 237.81054688 C-35.53925229 236.82069104 -37.5138682 235.83046951 -39.48828125 234.83984375 C-40.89597527 234.13516212 -40.89597527 234.13516212 -42.33210754 233.41624451 C-43.19357895 232.98231888 -44.05505035 232.54839325 -44.94262695 232.10131836 C-46.0846331 231.52745644 -46.0846331 231.52745644 -47.24971008 230.94200134 C-49 230 -49 230 -50 229 C-50.12714202 227.14159286 -50.18414955 225.27836762 -50.21446228 223.41586304 C-50.23606918 222.20243225 -50.25767609 220.98900146 -50.27993774 219.73880005 C-50.29873103 218.38104534 -50.31730889 217.02328764 -50.33569336 215.66552734 C-50.35831832 214.24458441 -50.38118683 212.82364534 -50.40428162 211.40270996 C-50.6076441 198.34239871 -50.71880667 185.28067405 -50.80750179 172.21913719 C-50.86836279 163.44926054 -50.95525031 154.68134831 -51.11108398 145.91259766 C-51.24716659 138.25509026 -51.33209852 130.59894415 -51.35790926 122.94024241 C-51.3731315 118.89532763 -51.4114299 114.85401845 -51.51078606 110.81022263 C-51.9774575 90.98774504 -50.18881169 76.47730037 -37.63523769 60.16108322 C-35.42842051 57.24461695 -33.58909781 54.19868111 -31.73046875 51.05078125 C-30.54992918 49.13774306 -29.36894852 47.22497698 -28.1875 45.3125 C-23.86945231 38.31389524 -19.5701462 31.30500495 -15.3125 24.26953125 C-14.73052605 23.30830101 -14.73052605 23.30830101 -14.13679504 22.32765198 C-12.25310592 19.21546029 -10.37208021 16.10170132 -8.49487305 12.9855957 C-7.81980713 11.86886475 -7.14474121 10.75213379 -6.44921875 9.6015625 C-5.85455811 8.61494629 -5.25989746 7.62833008 -4.6472168 6.61181641 C-3.19301979 4.30605094 -1.72372571 2.11146246 0 0 Z " fill="#FDFEFE" transform="translate(240,122)"/>
<path d="M0 0 C0 32.34 0 64.68 0 98 C-22.54655531 109.86660806 -22.54655531 109.86660806 -33.14086914 115.16308594 C-35.12540731 116.15648962 -37.10661478 117.15635827 -39.08789062 118.15625 C-40.36178523 118.79465797 -41.63586587 119.43269489 -42.91015625 120.0703125 C-44.59830444 120.91746826 -44.59830444 120.91746826 -46.32055664 121.78173828 C-49 123 -49 123 -51 123 C-51 90.66 -51 58.32 -51 25 C-38.6559375 18.8125 -38.6559375 18.8125 -26.0625 12.5 C-23.46125244 11.19482422 -20.86000488 9.88964844 -18.17993164 8.54492188 C-16.13175248 7.51937286 -14.08349917 6.49397189 -12.03515625 5.46875 C-10.96068237 4.92895508 -9.8862085 4.38916016 -8.7791748 3.83300781 C-7.76415894 3.32543945 -6.74914307 2.81787109 -5.70336914 2.29492188 C-4.81734512 1.85079956 -3.93132111 1.40667725 -3.01844788 0.94909668 C-1 0 -1 0 0 0 Z " fill="#FDFDFE" transform="translate(300,255)"/>
<path d="M0 0 C0.66 0 1.32 0 2 0 C2.44309997 8.88346965 2.77915613 17.76306741 2.98443127 26.65522957 C3.08304447 30.78636594 3.21628802 34.90987782 3.43334961 39.03662109 C4.79383579 65.5909451 4.79383579 65.5909451 0.21276855 72.82049561 C-4.07223153 77.2945156 -8.9737571 80.13326883 -14.54046631 82.75009155 C-18.58910852 84.80756778 -22.05630725 87.59045431 -25.625 90.375 C-31.8138621 95 -31.8138621 95 -33 95 C-33.30238548 86.04658368 -33.5327603 77.09494552 -33.67355824 68.13752174 C-33.74116989 63.97704307 -33.83269483 59.82007728 -33.98071289 55.66162109 C-34.12290605 51.64124021 -34.19987213 47.62421546 -34.23340416 43.60151291 C-34.25726605 42.0741426 -34.30387486 40.54693877 -34.37449074 39.02101517 C-34.88949775 27.42154856 -34.88949775 27.42154856 -31.74884415 23.39653969 C-28.21876423 19.98439319 -24.18690911 17.5253857 -20 15 C-18.18924588 13.68425649 -16.38932414 12.35322032 -14.609375 10.99609375 C-12.9906559 9.8084326 -11.37088875 8.62219836 -9.75 7.4375 C-8.09840812 6.22861593 -6.44733616 5.0190211 -4.796875 3.80859375 C-4.08885742 3.29095459 -3.38083984 2.77331543 -2.65136719 2.23999023 C-1.05489146 1.10184464 -1.05489146 1.10184464 0 0 Z " fill="#FAFCFC" transform="translate(282,176)"/>
<path d="M0 0 C0.33 0 0.66 0 1 0 C2.82316117 30.32337763 2.82316117 30.32337763 -2.17260742 37.27392578 C-4.31846612 39.66014276 -6.64024566 41.82768714 -9 44 C-10.56463173 46.07180572 -12.08859268 48.17520063 -13.5625 50.3125 C-14.68316142 51.89315122 -15.82025525 53.46294353 -17 55 C-17.33 55 -17.66 55 -18 55 C-19.82316117 24.67662237 -19.82316117 24.67662237 -14.82739258 17.72607422 C-12.68153388 15.33985724 -10.35975434 13.17231286 -8 11 C-6.43536827 8.92819428 -4.91140732 6.82479937 -3.4375 4.6875 C-2.31683858 3.10684878 -1.17974475 1.53705647 0 0 Z " fill="#F4F8FA" transform="translate(266,130)"/>
<path d="M0 0 C0.66 0 1.32 0 2 0 C2.94302252 10.95702361 1.99071106 17.99757353 -5 27 C-5.33 27 -5.66 27 -6 27 C-6.90964136 10.34345599 -6.90964136 10.34345599 -1 3 C-0.67 2.01 -0.34 1.02 0 0 Z " fill="#D4E8F0" transform="translate(254,104)"/>
</svg>
