<?xml version="1.0" encoding="UTF-8"?>
<svg version="1.1" xmlns="http://www.w3.org/2000/svg" width="226" height="234">
<path d="M0 0 C74.58 0 149.16 0 226 0 C226 77.22 226 154.44 226 234 C151.42 234 76.84 234 0 234 C0 156.78 0 79.56 0 0 Z " fill="#00608A" transform="translate(0,0)"/>
<path d="M0 0 C31.68 0 63.36 0 96 0 C96 28.05 96 56.1 96 85 C94.21231711 81.42463422 92.83493454 77.925936 91.4375 74.1875 C86.63304547 61.86414991 79.64581563 50.98885495 71 41 C70.32582031 40.18144531 69.65164062 39.36289062 68.95703125 38.51953125 C63.04104136 31.56905132 56.38691212 26.27254235 49 21 C48.13890625 20.37222656 47.2778125 19.74445312 46.390625 19.09765625 C34.45484038 10.92423852 20.68510174 5.80606208 6.52319336 3.19067383 C4.67168289 2.84578257 2.83368378 2.42970316 1 2 C0.67 1.34 0.34 0.68 0 0 Z " fill="#FBFCFC" transform="translate(130,0)"/>
<path d="M0 0 C31.68 0 63.36 0 96 0 C92.98386693 2.01075538 90.53987306 2.65480401 87.04760742 3.4440918 C69.36145531 7.50247821 53.01476907 15.46358602 39 27 C38.21423584 27.64340332 38.21423584 27.64340332 37.41259766 28.29980469 C19.74760846 43.02335762 7.8048113 63.15297426 1 85 C0.67 85 0.34 85 0 85 C0 56.95 0 28.9 0 0 Z " fill="#FBFCFC" transform="translate(0,0)"/>
<path d="M0 0 C0.33 0 0.66 0 1 0 C1 28.38 1 56.76 1 86 C-31.01 86 -63.02 86 -96 86 C-92.6168721 83.7445814 -89.45290481 83.01943968 -85.5625 82.125 C-54.12711586 74.45079904 -29.56651933 56.59975115 -11.875 29.4375 C-6.75222807 20.58640695 -2.30321594 9.98484407 0 0 Z " fill="#FCFCFC" transform="translate(225,148)"/>
<path d="M0 0 C2.06793749 3.10190623 2.97147281 5.71681882 4.125 9.25 C14.23762324 38.64572384 36.13928888 61.16540295 63.64306641 74.90869141 C73.87433255 79.64597747 85.03101118 82.54810838 96 85 C96 85.33 96 85.66 96 86 C64.32 86 32.64 86 0 86 C0 57.62 0 29.24 0 0 Z " fill="#FAFBFB" transform="translate(0,148)"/>
<path d="M0 0 C0.33 0 0.66 0 1 0 C1 37.95 1 75.9 1 115 C-18 106 -18 106 -22 104 C-22.2811653 95.47981994 -22.49278319 86.96165473 -22.62174606 78.43794632 C-22.68372475 74.47744338 -22.76738341 70.5201682 -22.90527344 66.56152344 C-23.5344136 48.01282536 -23.65058026 33.13306097 -11.48733521 17.91932678 C-9.16872428 14.927283 -7.28901436 11.69659477 -5.375 8.4375 C-3.62152485 5.59272702 -1.8537841 2.78067614 0 0 Z " fill="#FAFCFB" transform="translate(110,64)"/>
<path d="M0 0 C0 14.52 0 29.04 0 44 C-3.58875 45.815 -7.1775 47.63 -10.875 49.5 C-12.00534668 50.07427734 -13.13569336 50.64855469 -14.30029297 51.24023438 C-15.18861816 51.68689453 -16.07694336 52.13355469 -16.9921875 52.59375 C-17.90339355 53.05458984 -18.81459961 53.51542969 -19.75341797 53.99023438 C-22 55 -22 55 -24 55 C-24 40.48 -24 25.96 -24 11 C-3.22222222 0 -3.22222222 0 0 0 Z " fill="#FAFCFA" transform="translate(138,124)"/>
<path d="M0 0 C0.33 0 0.66 0 1 0 C1.12375 1.134375 1.2475 2.26875 1.375 3.4375 C1.58125 4.613125 1.7875 5.78875 2 7 C2.66 7.33 3.32 7.66 4 8 C3.67 8.99 3.34 9.98 3 11 C2.93062938 13.22818441 2.91542916 15.45834524 2.9375 17.6875 C2.94652344 18.86699219 2.95554687 20.04648438 2.96484375 21.26171875 C2.97644531 22.16535156 2.98804687 23.06898437 3 24 C7.9539713 19.42970757 11.43453237 15.86672244 12 8.9375 C12.03611385 7.29206293 12.04919919 5.64509781 12 4 C12.33 4 12.66 4 13 4 C13.02694851 5.95825873 13.04637218 7.91662226 13.0625 9.875 C13.07410156 10.96554688 13.08570313 12.05609375 13.09765625 13.1796875 C13 16 13 16 12 18 C11.34 18 10.68 18 10 18 C10 19.32 10 20.64 10 22 C10.66 22.33 11.32 22.66 12 23 C12 22.34 12 21.68 12 21 C13.5 19.375 13.5 19.375 15 18 C18 19 18 19 20 22 C20.38778112 26.40898518 20.32915388 30.82726764 20.31567383 35.2512207 C20.31251603 37.42645464 20.33597082 39.60032502 20.36132812 41.77539062 C20.3636015 43.16145662 20.36430444 44.54752627 20.36328125 45.93359375 C20.36626221 47.19228271 20.36924316 48.45097168 20.37231445 49.74780273 C19.97869688 53.18608449 19.51215177 54.64847268 17 57 C16.01 57 15.02 57 14 57 C13.67 57.99 13.34 58.98 13 60 C13 58.68 13 57.36 13 56 C13.97114746 55.35260864 13.97114746 55.35260864 14.96191406 54.69213867 C17.33997701 53.09098878 17.33997701 53.09098878 17.54589844 49.8137207 C17.5668457 48.53070068 17.58779297 47.24768066 17.609375 45.92578125 C17.62591125 45.2419487 17.64244751 44.55811615 17.65948486 43.8535614 C17.7080032 41.67311664 17.72934191 39.4933693 17.75 37.3125 C17.77815685 35.83264713 17.8080839 34.3528268 17.83984375 32.87304688 C17.91375987 29.24885017 17.96331252 25.62478626 18 22 C17.01257813 22.721875 16.02515625 23.44375 15.0078125 24.1875 C13.71372097 25.12524749 12.41944031 26.06273402 11.125 27 C10.47402344 27.47695312 9.82304688 27.95390625 9.15234375 28.4453125 C4.2265625 32 4.2265625 32 2 32 C2.495 47.345 2.495 47.345 3 63 C6.96 60.525 6.96 60.525 11 58 C11.33 58.66 11.66 59.32 12 60 C14.01669827 61.13350534 14.01669827 61.13350534 16 62 C11.90497488 64.73001675 7.40201974 66.79899013 3 69 C2.67 83.52 2.34 98.04 2 113 C5.3 111.35 8.6 109.7 12 108 C12.99 108.495 12.99 108.495 14 109 C13.01 109.33 12.02 109.66 11 110 C10.690625 110.78375 10.38125 111.5675 10.0625 112.375 C8.83354499 115.4112418 7.8350999 116.41567947 5 118 C1.18553101 118 -2.25370961 117.69375748 -6 117 C-6.66 116.34 -7.32 115.68 -8 115 C-8 113.68 -8 112.36 -8 111 C-13.0247239 110.37470103 -17.92528427 109.86987908 -23 110 C-23.495 107.03 -23.495 107.03 -24 104 C-24.66 104 -25.32 104 -26 104 C-26 81.23 -26 58.46 -26 35 C-25.67 35 -25.34 35 -25 35 C-25 57.11 -25 79.22 -25 102 C-23.35 102.33 -21.7 102.66 -20 103 C-14.06 105.97 -8.12 108.94 -2 112 C-1.34 75.04 -0.68 38.08 0 0 Z " fill="#1F5F7E" transform="translate(112,66)"/>
<path d="M0 0 C2.97 0.495 2.97 0.495 6 1 C8.13474495 7.40423484 8.13474495 7.40423484 7.453125 10.41796875 C6.89877264 13.5768214 7.47637075 15.18047016 8.6875 18.125 C9.02136719 18.97320312 9.35523438 19.82140625 9.69921875 20.6953125 C11.14542977 23.25766836 12.67806385 24.25973984 15 26 C15.75 29.6875 15.75 29.6875 16 33 C17.98 32.505 17.98 32.505 20 32 C20 32.99 20 33.98 20 35 C20.99 35.66 21.98 36.32 23 37 C23.51171875 39.3828125 23.51171875 39.3828125 23.6875 42.125 C23.75324219 43.03507812 23.81898437 43.94515625 23.88671875 44.8828125 C23.92410156 45.58148438 23.96148438 46.28015625 24 47 C26.64 47.33 29.28 47.66 32 48 C32.495 51.96 32.495 51.96 33 56 C33.969375 55.979375 34.93875 55.95875 35.9375 55.9375 C39 56 39 56 40 57 C40.04080783 58.99958364 40.04254356 61.00045254 40 63 C41.62318979 63.36237263 43.2486358 63.71465157 44.875 64.0625 C45.77992187 64.25972656 46.68484375 64.45695312 47.6171875 64.66015625 C50.01014125 65.23202157 50.01014125 65.23202157 52 64 C54.125 64.4375 54.125 64.4375 56 65 C56.495 68.465 56.495 68.465 57 72 C60.04913228 73.01111093 60.04913228 73.01111093 63 72 C63 72.66 63 73.32 63 74 C63.556875 73.649375 64.11375 73.29875 64.6875 72.9375 C67.53886783 71.78154007 69.08517222 72.19032562 72 73 C71.79375 73.78375 71.5875 74.5675 71.375 75.375 C71.25125 76.24125 71.1275 77.1075 71 78 C73.37783838 80.37783838 74.72073665 80.59009208 78 81 C78.66 80.67 79.32 80.34 80 80 C81.485 80.495 81.485 80.495 83 81 C85.63804589 80.60602665 85.63804589 80.60602665 88 80 C88.33 80.99 88.66 81.98 89 83 C88.67 83.33 88.34 83.66 88 84 C90.97 84.99 93.94 85.98 97 87 C97 87.33 97 87.66 97 88 C88.05633089 88.79854188 80.29823438 85.96155325 72 83 C70.95328125 82.62746094 69.9065625 82.25492187 68.828125 81.87109375 C39.68597455 70.56866513 17.85275744 47.07296413 5 19 C2.49663833 12.87331541 0 6.66906383 0 0 Z " fill="#0E4058" transform="translate(0,144)"/>
<path d="M0 0 C2.06565448 26.90484409 2.06565448 26.90484409 -1.22753906 33.43359375 C-5.21675467 38.07395712 -10.29712397 40.09904132 -16 42 C-16.22346359 37.55288354 -16.38620917 33.10878018 -16.49438477 28.65771484 C-16.53949166 27.14606802 -16.60080227 25.63481066 -16.67895508 24.12451172 C-17.313438 11.542674 -17.313438 11.542674 -14.05981445 7.72119141 C-11.76046743 6.1991573 -9.52442916 5.09379066 -7 4 C-6.030625 3.21625 -5.06125 2.4325 -4.0625 1.625 C-2 0 -2 0 0 0 Z " fill="#F7FBFB" transform="translate(130,88)"/>
<path d="M0 0 C3.00601152 0.64414532 6.00246988 1.31785726 9 2 C10.18722656 2.25652344 11.37445313 2.51304688 12.59765625 2.77734375 C42.46997058 9.48727507 68.44547932 28.24852339 85 54 C97 73.03448276 97 73.03448276 97 81 C96.34 81 95.68 81 95 81 C94.67 81.66 94.34 82.32 94 83 C93.90203125 82.28714844 93.8040625 81.57429688 93.703125 80.83984375 C92.73521639 74.64022223 91.36699459 70.2749582 88 65 C88 64.34 88 63.68 88 63 C86.02 63.33 84.04 63.66 82 64 C81 62 81 62 81.125 59.25 C80.9756028 55.36567287 80.16915516 53.21633352 78 50 C75.41585574 49.03093173 75.41585574 49.03093173 73 49 C72.690625 47.1128125 72.690625 47.1128125 72.375 45.1875 C71.90701624 42.96608515 71.90701624 42.96608515 71 41 C67.99992729 39.29144978 67.99992729 39.29144978 65 38 C64.125 35.3125 64.125 35.3125 64 33 C63.05125 32.938125 62.1025 32.87625 61.125 32.8125 C60.09375 32.544375 59.0625 32.27625 58 32 C57.71125 31.236875 57.4225 30.47375 57.125 29.6875 C55.60597646 26.05872155 53.66408856 25.30275695 50.17578125 23.71484375 C46.95998168 22.65830637 44.3589858 22.72008452 41 23 C41 21.35 41 19.7 41 18 C37.57173359 15.84146189 35.85937816 16.13163991 32 17 C29.875 16.5625 29.875 16.5625 28 16 C27.01 16 26.02 16 25 16 C24.87625 14.865625 24.7525 13.73125 24.625 12.5625 C24.41875 11.386875 24.2125 10.21125 24 9 C23.34 8.67 22.68 8.34 22 8 C21.67 8.99 21.34 9.98 21 11 C20.34 11 19.68 11 19 11 C19 11.66 19 12.32 19 13 C18.34 13 17.68 13 17 13 C16.67 11.02 16.34 9.04 16 7 C14.6078125 7.061875 14.6078125 7.061875 13.1875 7.125 C10 7 10 7 7 5 C4.67891331 4.29187186 2.34622853 3.61975848 0 3 C0 2.01 0 1.02 0 0 Z M70 44 C70.66 44.66 71.32 45.32 72 46 C71.01 45.67 70.02 45.34 69 45 C69.33 44.67 69.66 44.34 70 44 Z " fill="#0280B8" transform="translate(127,0)"/>
<path d="M0 0 C-0.33 0.99 -0.66 1.98 -1 3 C-1.99 3.33 -2.98 3.66 -4 4 C-5.20882096 6.00016466 -5.20882096 6.00016466 -6 8 C-6 7.34 -6 6.68 -6 6 C-12.19518473 6.41588046 -17.26689311 7.60251894 -23 10 C-23 9.34 -23 8.68 -23 8 C-25.53673288 9.3553326 -25.53673288 9.3553326 -28 11 C-28 11.66 -28 12.32 -28 13 C-28.66 13 -29.32 13 -30 13 C-30.33 13.99 -30.66 14.98 -31 16 C-32.97960521 16 -34.95968466 15.95916235 -36.9375 15.875 C-40.06135915 16.00250446 -41.55474592 16.07872893 -44 18 C-45.29231642 21.04199472 -45.29231642 21.04199472 -46 24 C-46.763125 24.144375 -47.52625 24.28875 -48.3125 24.4375 C-51.08172908 24.9632594 -51.08172908 24.9632594 -54 26 C-54.66 25.67 -55.32 25.34 -56 25 C-56 25.66 -56 26.32 -56 27 C-56.66 27 -57.32 27 -58 27 C-58.33 27.99 -58.66 28.98 -59 30 C-60.59375 31.53515625 -60.59375 31.53515625 -62.5 33.0625 C-65.18106401 35.17721767 -65.18106401 35.17721767 -67 38 C-67.66 38 -68.32 38 -69 38 C-68.814375 38.721875 -68.62875 39.44375 -68.4375 40.1875 C-67.98004693 43.12826973 -68.26483643 45.14103058 -69 48 C-69.763125 47.814375 -70.52625 47.62875 -71.3125 47.4375 C-74.08967375 46.77180827 -74.08967375 46.77180827 -77 48 C-77.33 50.31 -77.66 52.62 -78 55 C-80.31 55 -82.62 55 -85 55 C-85.33 54.34 -85.66 53.68 -86 53 C-68.56322767 27.81896286 -33.47031664 -2.21346783 0 0 Z " fill="#0C77A7" transform="translate(101,0)"/>
<path d="M0 0 C0.495 0.99 0.495 0.99 1 2 C-9.72364161 27.44060583 -33.36440553 47.2771812 -58.0625 58.3125 C-68.15861503 62.40798621 -77.9869655 65.9135236 -89 65 C-86.18333306 63.12222204 -84.26813641 62.38697308 -81.0625 61.5 C-78.53136291 60.79754265 -76.24456052 60.12364398 -73.8984375 58.9375 C-71.06931958 57.54040473 -68.10901554 57.43635306 -65 57 C-64.0925 56.62875 -63.185 56.2575 -62.25 55.875 C-60 55 -60 55 -57 56 C-57 54.02 -57 52.04 -57 50 C-54.36 50 -51.72 50 -49 50 C-48.855625 49.236875 -48.71125 48.47375 -48.5625 47.6875 C-46.42508832 44.01115191 -44.2135151 43.81803664 -40.265625 42.671875 C-37.43894807 41.83361908 -35.26803606 40.90222379 -33 39 C-32.58219121 36.37305578 -32.58219121 36.37305578 -33 34 C-30.36 33.01 -27.72 32.02 -25 31 C-25 29.35 -25 27.7 -25 26 C-21.04 25.505 -21.04 25.505 -17 25 C-17 23.35 -17 21.7 -17 20 C-16.34 20 -15.68 20 -15 20 C-15.495 18.515 -15.495 18.515 -16 17 C-14.02 17 -12.04 17 -10 17 C-9.34 12.05 -8.68 7.1 -8 2 C-7.01 2 -6.02 2 -5 2 C-5 2.66 -5 3.32 -5 4 C-4.34 3.67 -3.68 3.34 -3 3 C-3 2.34 -3 1.68 -3 1 C-2.01 0.67 -1.02 0.34 0 0 Z " fill="#0E384C" transform="translate(217,167)"/>
<path d="M0 0 C0.66 0 1.32 0 2 0 C3.50156874 3.00313748 3.09281204 5.79067522 3.0625 9.125 C3.05347656 10.40632813 3.04445313 11.68765625 3.03515625 13.0078125 C3.02355469 13.99523438 3.01195313 14.98265625 3 16 C3.99 16 4.98 16 6 16 C7.85274551 21.55823653 7.89386304 27.23677118 7 33 C4.82090042 36.62355966 2.19181748 39.25683157 -1 42 C-1.66 42.66 -2.32 43.32 -3 44 C-3 38.33333333 -3 32.66666667 -3 27 C-3.33 26.34 -3.66 25.68 -4 25 C-4.33 37.87 -4.66 50.74 -5 64 C-5.33 64 -5.66 64 -6 64 C-6.33 47.83 -6.66 31.66 -7 15 C-6.34 15 -5.68 15 -5 15 C-5.33 14.01 -5.66 13.02 -6 12 C-6.66 12.66 -7.32 13.32 -8 14 C-9.125 10.25 -9.125 10.25 -8 8 C-7.01 8 -6.02 8 -5 8 C-4.67 6.68 -4.34 5.36 -4 4 C-3.34 4 -2.68 4 -2 4 C-1.34 2.68 -0.68 1.36 0 0 Z " fill="#15709B" transform="translate(117,48)"/>
<path d="M0 0 C0.33 0 0.66 0 1 0 C1 22.11 1 44.22 1 67 C2.65 67.33 4.3 67.66 6 68 C12.6 71.3 19.2 74.6 26 78 C26 63.15 26 48.3 26 33 C26.33 33 26.66 33 27 33 C27 48.18 27 63.36 27 79 C30.63 77.02 34.26 75.04 38 73 C38.99 73.495 38.99 73.495 40 74 C39.01 74.33 38.02 74.66 37 75 C36.690625 75.78375 36.38125 76.5675 36.0625 77.375 C34.83354499 80.4112418 33.8350999 81.41567947 31 83 C27.18553101 83 23.74629039 82.69375748 20 82 C19.34 81.34 18.68 80.68 18 80 C18 78.68 18 77.36 18 76 C12.9752761 75.37470103 8.07471573 74.86987908 3 75 C2.505 72.03 2.505 72.03 2 69 C1.34 69 0.68 69 0 69 C0 46.23 0 23.46 0 0 Z " fill="#0B3E5C" transform="translate(86,101)"/>
<path d="M0 0 C20.90123459 12.50907222 38.44652186 34.77020794 46 58 C46 58.99 46 59.98 46 61 C45.34 61 44.68 61 44 61 C43.505 61.99 43.505 61.99 43 63 C42.90203125 62.28714844 42.8040625 61.57429688 42.703125 60.83984375 C41.73521639 54.64022223 40.36699459 50.2749582 37 45 C37 44.34 37 43.68 37 43 C34.03 43.495 34.03 43.495 31 44 C30 42 30 42 30.125 39.25 C29.9756028 35.36567287 29.16915516 33.21633352 27 30 C24.41585574 29.03093173 24.41585574 29.03093173 22 29 C21.79375 27.741875 21.5875 26.48375 21.375 25.1875 C20.90701624 22.96608515 20.90701624 22.96608515 20 21 C16.99992729 19.29144978 16.99992729 19.29144978 14 18 C13.125 15.3125 13.125 15.3125 13 13 C11.576875 12.9071875 11.576875 12.9071875 10.125 12.8125 C9.09375 12.544375 8.0625 12.27625 7 12 C5.8125 9.5625 5.8125 9.5625 5 7 C4.01 6.34 3.02 5.68 2 5 C2 4.34 2 3.68 2 3 C1.01 2.67 0.02 2.34 -1 2 C-0.67 1.34 -0.34 0.68 0 0 Z M19 24 C19.66 24.66 20.32 25.32 21 26 C20.01 25.67 19.02 25.34 18 25 C18.33 24.67 18.66 24.34 19 24 Z " fill="#0F7BAC" transform="translate(178,20)"/>
<path d="M0 0 C0.495 0.99 0.495 0.99 1 2 C-4.41788426 14.85330702 -15.82705555 31.43026984 -28 39 C-29.66666667 39 -31.33333333 39 -33 39 C-33 37.35 -33 35.7 -33 34 C-30.36 33.01 -27.72 32.02 -25 31 C-25 29.35 -25 27.7 -25 26 C-21.04 25.505 -21.04 25.505 -17 25 C-17 23.35 -17 21.7 -17 20 C-16.34 20 -15.68 20 -15 20 C-15.33 19.01 -15.66 18.02 -16 17 C-14.02 17 -12.04 17 -10 17 C-9.34 12.05 -8.68 7.1 -8 2 C-7.01 2 -6.02 2 -5 2 C-5 2.66 -5 3.32 -5 4 C-4.34 3.67 -3.68 3.34 -3 3 C-3 2.34 -3 1.68 -3 1 C-2.01 0.67 -1.02 0.34 0 0 Z " fill="#0F435B" transform="translate(217,167)"/>
<path d="M0 0 C0.33 0 0.66 0 1 0 C1.33 9.9 1.66 19.8 2 30 C4.64 28.35 7.28 26.7 10 25 C10.33 25.66 10.66 26.32 11 27 C13.01669827 28.13350534 13.01669827 28.13350534 15 29 C10.90497488 31.73001675 6.40201974 33.79899013 2 36 C2 50.85 2 65.7 2 81 C0.68 80.67 -0.64 80.34 -2 80 C-2 57.89 -2 35.78 -2 13 C-1.67 13 -1.34 13 -1 13 C-0.67 8.71 -0.34 4.42 0 0 Z " fill="#3B6078" transform="translate(113,99)"/>
<path d="M0 0 C0.02505615 1.09876465 0.0501123 2.1975293 0.07592773 3.32958984 C0.17087355 7.44850167 0.27087282 11.56727862 0.37231445 15.68603516 C0.41533668 17.4607424 0.45703105 19.23548239 0.49731445 21.01025391 C0.55581948 23.57725207 0.61831844 26.14410291 0.68359375 28.7109375 C0.70424896 29.53648132 0.72490417 30.36202515 0.7461853 31.21258545 C0.87083797 35.52322197 1.13145215 39.75492412 1.66015625 44.0390625 C2 48 2 48 0 51 C-1.32594105 51.36162029 -2.65938457 51.69728039 -4 52 C-4.33 52.66 -4.66 53.32 -5 54 C-6.92578125 54.34375 -6.92578125 54.34375 -9.3125 54.5 C-12.70622701 54.72437865 -15.03133709 55.31526681 -18 57 C-16.33543469 52.00630408 -12.31083735 50.06459904 -7.8125 47.75 C-4.29230769 46 -4.29230769 46 -2 46 C-2 31.48 -2 16.96 -2 2 C-6.455 3.485 -6.455 3.485 -11 5 C-11 4.01 -11 3.02 -11 2 C-9.68 2 -8.36 2 -7 2 C-7.33 1.34 -7.66 0.68 -8 0 C-5.13822943 -1.43088528 -3.06624227 -0.59991697 0 0 Z " fill="#235875" transform="translate(140,122)"/>
<path d="M0 0 C2.97 0.495 2.97 0.495 6 1 C8.13474495 7.40423484 8.13474495 7.40423484 7.453125 10.41796875 C6.89877264 13.5768214 7.47637075 15.18047016 8.6875 18.125 C9.02136719 18.97320312 9.35523438 19.82140625 9.69921875 20.6953125 C11.14542977 23.25766836 12.67806385 24.25973984 15 26 C15.75 29.6875 15.75 29.6875 16 33 C17.98 32.505 17.98 32.505 20 32 C20 32.99 20 33.98 20 35 C20.99 35.66 21.98 36.32 23 37 C23 38.32 23 39.64 23 41 C22.34 41 21.68 41 21 41 C21.33 42.32 21.66 43.64 22 45 C17.40637862 41.81917957 15.15114272 38.42887387 12.5625 33.625 C12.17634521 32.9225415 11.79019043 32.22008301 11.39233398 31.49633789 C-0 10.41092174 -0 10.41092174 0 0 Z " fill="#0F4F67" transform="translate(0,144)"/>
<path d="M0 0 C-0.33 0.99 -0.66 1.98 -1 3 C-1.99 3.33 -2.98 3.66 -4 4 C-5.20882096 6.00016466 -5.20882096 6.00016466 -6 8 C-6 7.34 -6 6.68 -6 6 C-12.19518473 6.41588046 -17.26689311 7.60251894 -23 10 C-23 9.34 -23 8.68 -23 8 C-25.53673288 9.3553326 -25.53673288 9.3553326 -28 11 C-28 11.66 -28 12.32 -28 13 C-28.66 13 -29.32 13 -30 13 C-30.33 13.99 -30.66 14.98 -31 16 C-33.66666667 16 -36.33333333 16 -39 16 C-39.33 15.34 -39.66 14.68 -40 14 C-39.195625 13.731875 -38.39125 13.46375 -37.5625 13.1875 C-36.716875 12.795625 -35.87125 12.40375 -35 12 C-34.67 11.01 -34.34 10.02 -34 9 C-31.3671875 7.75390625 -31.3671875 7.75390625 -27.875 6.5625 C-27.2569751 6.35149658 -26.6389502 6.14049316 -26.00219727 5.9230957 C-7.18478395 -0.3667092 -7.18478395 -0.3667092 0 0 Z " fill="#1688AE" transform="translate(101,0)"/>
<path d="M0 0 C0.33 0 0.66 0 1 0 C1.12375 1.134375 1.2475 2.26875 1.375 3.4375 C1.58125 4.613125 1.7875 5.78875 2 7 C2.66 7.33 3.32 7.66 4 8 C3.67 8.99 3.34 9.98 3 11 C2.93029948 13.39490986 2.91551997 15.79167691 2.9375 18.1875 C2.94652344 19.45980469 2.95554687 20.73210937 2.96484375 22.04296875 C2.97644531 23.01878906 2.98804687 23.99460937 3 25 C4.98 24.34 6.96 23.68 9 23 C9.99 23.99 10.98 24.98 12 26 C10.70982586 26.98113243 9.41780894 27.95984199 8.125 28.9375 C7.04605469 29.75541016 7.04605469 29.75541016 5.9453125 30.58984375 C4 32 4 32 2 33 C1.67 44.22 1.34 55.44 1 67 C0.67 67 0.34 67 0 67 C0 44.89 0 22.78 0 0 Z " fill="#165577" transform="translate(112,66)"/>
<path d="M0 0 C0.66 0 1.32 0 2 0 C3.2240539 11.95152624 3.2240539 11.95152624 0.2890625 16.86328125 C-1.70934603 19.06730221 -3.74511777 21.06206909 -6 23 C-6.66 23.66 -7.32 24.32 -8 25 C-9.07392935 11.90828984 -9.07392935 11.90828984 -6.4765625 7.29296875 C-4.74078606 5.38361466 -2.94382466 3.69210636 -1 2 C-0.67 1.34 -0.34 0.68 0 0 Z " fill="#F4FBF8" transform="translate(122,67)"/>
<path d="M0 0 C7.92 0 15.84 0 24 0 C20.98330557 2.01112962 18.537482 2.65456476 15.04516602 3.44604492 C2.82576939 6.24295917 -7.88940561 11.30844449 -19 17 C-20.33261587 17.66809966 -21.66572664 18.3352167 -23 19 C-23.33 18.34 -23.66 17.68 -24 17 C-22.87926138 16.16094435 -21.75325453 15.32892169 -20.625 14.5 C-19.99851562 14.0359375 -19.37203125 13.571875 -18.7265625 13.09375 C-17 12 -17 12 -15 12 C-15 11.34 -15 10.68 -15 10 C-12.36 10 -9.72 10 -7 10 C-7 9.34 -7 8.68 -7 8 C-6.05125 7.9175 -5.1025 7.835 -4.125 7.75 C-0.9429912 7.33317834 -0.9429912 7.33317834 0.4375 5.125 C1.25072191 2.83806568 1.25072191 2.83806568 0 0 Z " fill="#F2FAFB" transform="translate(72,0)"/>
<path d="M0 0 C2.64 0 5.28 0 8 0 C7.63648438 0.64324219 7.27296875 1.28648438 6.8984375 1.94921875 C1.33887636 11.94217352 -3.65703119 22.04249113 -7 33 C-7.33 33 -7.66 33 -8 33 C-8 27.39 -8 21.78 -8 16 C-7.34 16 -6.68 16 -6 16 C-5.731875 15.360625 -5.46375 14.72125 -5.1875 14.0625 C-4 12 -4 12 -1 11 C0.47666292 7.50970582 0.07164685 3.72563614 0 0 Z " fill="#F4F7F4" transform="translate(8,52)"/>
<path d="M0 0 C0.99 0.33 1.98 0.66 3 1 C3 2.65 3 4.3 3 6 C5.64 6.33 8.28 6.66 11 7 C11.33 9.64 11.66 12.28 12 15 C12.969375 14.979375 13.93875 14.95875 14.9375 14.9375 C18 15 18 15 19 16 C19.04080783 17.99958364 19.04254356 20.00045254 19 22 C20.65 22.33 22.3 22.66 24 23 C24 23.99 24 24.98 24 26 C24.66 26.33 25.32 26.66 26 27 C19.29665632 27 12.7924932 18.88828087 8.125 14.375 C0 5.93674699 0 5.93674699 0 0 Z " fill="#134962" transform="translate(21,185)"/>
<path d="M0 0 C0.66 1.32 1.32 2.64 2 4 C2.66 4 3.32 4 4 4 C4.33 3.34 4.66 2.68 5 2 C5 3.32 5 4.64 5 6 C5.66 6 6.32 6 7 6 C7 11.28 7 16.56 7 22 C7.66 22.33 8.32 22.66 9 23 C9 23.66 9 24.32 9 25 C8.01 25.33 7.02 25.66 6 26 C5.26676204 28.01508358 5.26676204 28.01508358 5 30 C4.34 30 3.68 30 3 30 C3 30.66 3 31.32 3 32 C2.01 31.67 1.02 31.34 0 31 C0.33 29.68 0.66 28.36 1 27 C1.66 27 2.32 27 3 27 C3.02722517 24.79173622 3.04649729 22.58337362 3.0625 20.375 C3.07410156 19.14523438 3.08570312 17.91546875 3.09765625 16.6484375 C3.00863924 13.32276209 2.63686087 10.25952412 2 7 C1.01 7 0.02 7 -1 7 C-1.04254356 5.00045254 -1.04080783 2.99958364 -1 1 C-0.67 0.67 -0.34 0.34 0 0 Z " fill="#076B9E" transform="translate(121,57)"/>
<path d="M0 0 C3.96156166 3.67560387 6.7716172 7.41126264 9.5 12.0625 C9.88728271 12.71573242 10.27456543 13.36896484 10.67358398 14.04199219 C19 28.38357707 19 28.38357707 19 35 C18.34 35 17.68 35 17 35 C16.67 35.66 16.34 36.32 16 37 C15.90203125 36.28714844 15.8040625 35.57429688 15.703125 34.83984375 C14.73521639 28.64022223 13.36699459 24.2749582 10 19 C10 18.34 10 17.68 10 17 C8.02 17.33 6.04 17.66 4 18 C3 16 3 16 3.125 13.25 C2.9791037 9.45669618 1.73774583 7.3306795 0 4 C0 2.68 0 1.36 0 0 Z " fill="#14729A" transform="translate(205,46)"/>
<path d="M0 0 C7.48116133 0.28230797 12.65074114 3.18344183 19 7 C19 7.66 19 8.32 19 9 C19.66 9 20.32 9 21 9 C21 9.66 21 10.32 21 11 C21.99 11 22.98 11 24 11 C24.33 10.34 24.66 9.68 25 9 C25.33 9.99 25.66 10.98 26 12 C26.66 12.66 27.32 13.32 28 14 C27.30132812 13.9278125 26.60265625 13.855625 25.8828125 13.78125 C24.51769531 13.64203125 24.51769531 13.64203125 23.125 13.5 C21.76761719 13.36078125 21.76761719 13.36078125 20.3828125 13.21875 C18.06686789 12.96952705 18.06686789 12.96952705 16 13 C16 11.35 16 9.7 16 8 C12.57173359 5.84146189 10.85937816 6.13163991 7 7 C4.875 6.5625 4.875 6.5625 3 6 C2.01 6 1.02 6 0 6 C0 4.02 0 2.04 0 0 Z " fill="#037FB8" transform="translate(152,10)"/>
<path d="M0 0 C1.125 3.75 1.125 3.75 0 6 C-0.66 6 -1.32 6 -2 6 C-2 5.34 -2 4.68 -2 4 C-2.99 4.495 -2.99 4.495 -4 5 C-3.896875 6.155 -3.79375 7.31 -3.6875 8.5 C-3.64140131 13.66305372 -5.99825988 16.96909183 -9 21 C-9.66 20.67 -10.32 20.34 -11 20 C-11 19.01 -11 18.02 -11 17 C-10.01 17 -9.02 17 -8 17 C-8.33 16.34 -8.66 15.68 -9 15 C-9.66 15 -10.32 15 -11 15 C-11 11.04 -11 7.08 -11 3 C-8.42838542 2.51171875 -5.85677083 2.0234375 -3.28515625 1.53515625 C-1.04710156 1.22285012 -1.04710156 1.22285012 0 0 Z " fill="#0470A3" transform="translate(107,61)"/>
<path d="M0 0 C4.62 0 9.24 0 14 0 C14.33 1.32 14.66 2.64 15 4 C16.27875 3.690625 17.5575 3.38125 18.875 3.0625 C19.95394531 2.80146484 19.95394531 2.80146484 21.0546875 2.53515625 C23.0585657 2.05153008 23.0585657 2.05153008 25 1 C26.67654729 1.27942455 28.34608154 1.60828247 30 2 C29.67 3.32 29.34 4.64 29 6 C28.34 6 27.68 6 27 6 C27 6.66 27 7.32 27 8 C29.31 8.33 31.62 8.66 34 9 C34.495 10.485 34.495 10.485 35 12 C33.64451156 11.56661254 32.29068724 11.12802005 30.9375 10.6875 C30.18339844 10.44386719 29.42929688 10.20023438 28.65234375 9.94921875 C26 9 26 9 22.77734375 7.5234375 C17.77300185 5.34407268 12.47504333 4.49628802 7.14453125 3.45117188 C5.08347969 3.02563138 3.03944186 2.51932179 1 2 C0.67 1.34 0.34 0.68 0 0 Z " fill="#ECFAFD" transform="translate(130,0)"/>
<path d="M0 0 C0.66 0 1.32 0 2 0 C3.19937786 6.37259801 3.06475363 10.23826317 0 16 C-0.99 16 -1.98 16 -3 16 C-3.495 16.495 -3.99 16.99 -4.5 17.5 C-4.995 17.995 -5.49 18.49 -6 19 C-6.99 19 -7.98 19 -9 19 C-7.6077541 14.37324343 -5.70479016 10.35313769 -3.375 6.125 C-2.74335938 4.97257812 -2.11171875 3.82015625 -1.4609375 2.6328125 C-0.97882812 1.76398437 -0.49671875 0.89515625 0 0 Z " fill="#03709C" transform="translate(13,56)"/>
<path d="M0 0 C0.33 0 0.66 0 1 0 C1.29162929 4.95769796 1.12940055 8.02806853 -2 12 C-2.66 12 -3.32 12 -4 12 C-4.33 26.52 -4.66 41.04 -5 56 C-5.33 56 -5.66 56 -6 56 C-6.33 39.83 -6.66 23.66 -7 7 C-6.34 7 -5.68 7 -5 7 C-3.67906764 5.43862664 -3.67906764 5.43862664 -2.4375 3.5 C-1.64725293 2.31814682 -0.839861 1.14712722 0 0 Z " fill="#54798F" transform="translate(117,56)"/>
<path d="M0 0 C0.66 0.99 1.32 1.98 2 3 C1.67 3.33 1.34 3.66 1 4 C0.90586313 6.05556661 0.88257002 8.11440181 0.88647461 10.17211914 C0.88632858 10.81600082 0.88618256 11.45988251 0.8860321 12.12327576 C0.88673115 14.26060303 0.89452309 16.39784413 0.90234375 18.53515625 C0.90420796 20.01346285 0.90563185 21.49177007 0.90663147 22.97007751 C0.91045641 26.86798802 0.92028648 30.76586149 0.93133545 34.66375732 C0.94155008 38.63846333 0.9461292 42.61317529 0.95117188 46.58789062 C0.96190878 54.391944 0.97898491 62.19596682 1 70 C0.34 70 -0.32 70 -1 70 C-1.02314123 61.16844684 -1.0409242 52.33690406 -1.05181217 43.50532722 C-1.05703709 39.40474504 -1.06412768 35.30418355 -1.07543945 31.20361328 C-1.08628218 27.24845043 -1.09227979 23.29330752 -1.09487724 19.33813095 C-1.09672898 17.82701173 -1.10034482 16.31589363 -1.10573006 14.80478287 C-1.11295886 12.69291042 -1.11399016 10.58112105 -1.11352539 8.46923828 C-1.115746 7.26566681 -1.11796661 6.06209534 -1.12025452 4.822052 C-1 2 -1 2 0 0 Z " fill="#E4FCFD" transform="translate(89,98)"/>
<path d="M0 0 C0.33 0.66 0.66 1.32 1 2 C-0.109375 4.4609375 -0.109375 4.4609375 -1.75 7.375 C-2.28109375 8.33148438 -2.8121875 9.28796875 -3.359375 10.2734375 C-4.79531928 12.65984014 -6.18105593 14.89122419 -8 17 C-8.66 17 -9.32 17 -10 17 C-9.34 12.05 -8.68 7.1 -8 2 C-7.01 2 -6.02 2 -5 2 C-5 2.66 -5 3.32 -5 4 C-4.34 3.67 -3.68 3.34 -3 3 C-3 2.34 -3 1.68 -3 1 C-2.01 0.67 -1.02 0.34 0 0 Z " fill="#0F465E" transform="translate(217,167)"/>
<path d="M0 0 C2.97 0.495 2.97 0.495 6 1 C7.48949997 5.46849992 8.26779601 8.43593437 7 13 C7 13.99 7 14.98 7 16 C6.01 16 5.02 16 4 16 C3.32586789 14.08594633 2.6609668 12.16863974 2 10.25 C1.62875 9.18265625 1.2575 8.1153125 0.875 7.015625 C0 4 0 4 0 0 Z " fill="#0D5674" transform="translate(0,144)"/>
<path d="M0 0 C2.38927126 3.58390688 2.22243885 5.10803363 2.16015625 9.35546875 C2.14919922 10.61810547 2.13824219 11.88074219 2.12695312 13.18164062 C2.10620397 14.51693871 2.08471404 15.85222548 2.0625 17.1875 C1.85654133 28.63546894 1.85654133 28.63546894 3 40 C4.98 39.505 4.98 39.505 7 39 C7.33 39.66 7.66 40.32 8 41 C2.25 44 2.25 44 0 44 C0 29.48 0 14.96 0 0 Z " fill="#E9FEFE" transform="translate(114,135)"/>
<path d="M0 0 C0 3 0 3 -1 6 C-1.99 6.66 -2.98 7.32 -4 8 C-5.20450304 10.55183404 -5.20450304 10.55183404 -6 13 C-6.99 13 -7.98 13 -9 13 C-9.12375 13.639375 -9.2475 14.27875 -9.375 14.9375 C-9.58125 15.618125 -9.7875 16.29875 -10 17 C-10.66 17.33 -11.32 17.66 -12 18 C-12.4640625 19.2375 -12.4640625 19.2375 -12.9375 20.5 C-13.288125 21.325 -13.63875 22.15 -14 23 C-14.99 23.33 -15.98 23.66 -17 24 C-17.33 23.34 -17.66 22.68 -18 22 C-12.51304418 14.07610011 -6.60775242 7.00042623 0 0 Z " fill="#147794" transform="translate(33,31)"/>
<path d="M0 0 C0.66 0 1.32 0 2 0 C1.55919457 7.49369227 -0.80497376 14.22176676 -4 21 C-4.66 21.33 -5.32 21.66 -6 22 C-5.979375 21.030625 -5.95875 20.06125 -5.9375 19.0625 C-5.64381501 16.12534105 -5.64381501 16.12534105 -7 15 C-7.04063832 13.33382885 -7.042721 11.66611905 -7 10 C-5.02 9.34 -3.04 8.68 -1 8 C-0.67 5.36 -0.34 2.72 0 0 Z " fill="#0C4B66" transform="translate(224,144)"/>
<path d="M0 0 C1.66666667 1.66666667 3.33333333 3.33333333 5 5 C4.07456291 6.34173403 3.13422595 7.67320159 2.1875 9 C1.66542969 9.7425 1.14335938 10.485 0.60546875 11.25 C0.07566406 11.8275 -0.45414062 12.405 -1 13 C-1.99 13 -2.98 13 -4 13 C-4.33 10.69 -4.66 8.38 -5 6 C-4.34 6 -3.68 6 -3 6 C-2.690625 5.195625 -2.38125 4.39125 -2.0625 3.5625 C-1 1 -1 1 0 0 Z " fill="#0E6D96" transform="translate(118,62)"/>
<path d="M0 0 C0.33 0 0.66 0 1 0 C1 4.62 1 9.24 1 14 C0.34 14 -0.32 14 -1 14 C-1.64834654 15.269553 -2.29357815 16.54069706 -2.9375 17.8125 C-3.29714844 18.52019531 -3.65679687 19.22789062 -4.02734375 19.95703125 C-5.10730516 22.11810285 -5.10730516 22.11810285 -6 25 C-8.0625 26.1875 -8.0625 26.1875 -10 27 C-8.83243713 23.07274309 -7.30370516 19.44743867 -5.5625 15.75 C-3.18225839 10.61628363 -1.45708425 5.46110438 0 0 Z " fill="#D9EDF2" transform="translate(225,148)"/>
<path d="M0 0 C1.98 1.32 3.96 2.64 6 4 C3.68570179 5.54286547 1.45428972 6.89992755 -1 8.1875 C-1.680625 8.55230469 -2.36125 8.91710937 -3.0625 9.29296875 C-5 10 -5 10 -8 9 C-7.61479436 6.46089803 -7.29902057 5.27248877 -5.37109375 3.515625 C-4.73300781 3.09796875 -4.09492187 2.6803125 -3.4375 2.25 C-2.79683594 1.82203125 -2.15617187 1.3940625 -1.49609375 0.953125 C-1.00238281 0.63859375 -0.50867188 0.3240625 0 0 Z " fill="#225A7C" transform="translate(122,124)"/>
<path d="M0 0 C10.19619957 3.11070495 19.87571981 7.48299337 29 13 C29 13.99 29 14.98 29 16 C28.01 16 27.02 16 26 16 C26 15.34 26 14.68 26 14 C25.34 14 24.68 14 24 14 C23.57332031 13.55785156 23.14664063 13.11570312 22.70703125 12.66015625 C18.03702722 8.11839031 10.13975741 5.82533328 4 4 C4 3.34 4 2.68 4 2 C2.68 2 1.36 2 0 2 C0 1.34 0 0.68 0 0 Z " fill="#1E7C9E" transform="translate(147,5)"/>
<path d="M0 0 C0.33 0.66 0.66 1.32 1 2 C0.07543945 3.99951172 0.07543945 3.99951172 -1.38671875 6.4296875 C-1.91330078 7.30753906 -2.43988281 8.18539062 -2.98242188 9.08984375 C-3.54509766 10.00894531 -4.10777344 10.92804688 -4.6875 11.875 C-5.23083984 12.78636719 -5.77417969 13.69773437 -6.33398438 14.63671875 C-8.92354549 18.91403494 -11.34232705 22.55011012 -15 26 C-15 24.68 -15 23.36 -15 22 C-14.34 22 -13.68 22 -13 22 C-13 20.35 -13 18.7 -13 17 C-12.01 16.67 -11.02 16.34 -10 16 C-9.67 14.35 -9.34 12.7 -9 11 C-8.34 11 -7.68 11 -7 11 C-5.71993203 9.21601386 -4.52339649 7.37146094 -3.375 5.5 C-2.74335937 4.4790625 -2.11171875 3.458125 -1.4609375 2.40625 C-0.97882813 1.6121875 -0.49671875 0.818125 0 0 Z " fill="#165674" transform="translate(103,73)"/>
<path d="M0 0 C0.66 0 1.32 0 2 0 C2.66 0.99 3.32 1.98 4 3 C5.65532623 4.01866229 7.32260138 5.01810813 9 6 C10.875 7.4375 10.875 7.4375 12 9 C11.6875 11.1875 11.6875 11.1875 11 13 C9.68 13.33 8.36 13.66 7 14 C6.79375 12.741875 6.5875 11.48375 6.375 10.1875 C5.49193978 6.51890422 5.27006117 6.17283915 1.875 4 C0.92625 3.67 -0.0225 3.34 -1 3 C-0.67 2.01 -0.34 1.02 0 0 Z M4 9 C4.66 9.66 5.32 10.32 6 11 C5.01 10.67 4.02 10.34 3 10 C3.33 9.67 3.66 9.34 4 9 Z " fill="#0B76A1" transform="translate(193,35)"/>
<path d="M0 0 C-0.61520508 0.29245605 -1.23041016 0.58491211 -1.86425781 0.88623047 C-4.65970043 2.21541018 -7.454853 3.54519874 -10.25 4.875 C-11.70212891 5.56529297 -11.70212891 5.56529297 -13.18359375 6.26953125 C-14.58544922 6.93662109 -14.58544922 6.93662109 -16.015625 7.6171875 C-16.87446289 8.02565918 -17.73330078 8.43413086 -18.61816406 8.85498047 C-20.7563378 9.88286432 -22.88153766 10.93219206 -25 12 C-25.33 11.34 -25.66 10.68 -26 10 C-24.87926138 9.16094435 -23.75325453 8.32892169 -22.625 7.5 C-21.99851562 7.0359375 -21.37203125 6.571875 -20.7265625 6.09375 C-19 5 -19 5 -17 5 C-17 4.34 -17 3.68 -17 3 C-14.36 3 -11.72 3 -9 3 C-9 2.34 -9 1.68 -9 1 C-3.375 -1.125 -3.375 -1.125 0 0 Z " fill="#D9F4FA" transform="translate(74,7)"/>
<path d="M0 0 C0.99 0.33 1.98 0.66 3 1 C1.52307692 5.67692308 1.52307692 5.67692308 -1.125 7.3125 C-1.74375 7.539375 -2.3625 7.76625 -3 8 C-2.67 10.31 -2.34 12.62 -2 15 C-3.32 15.33 -4.64 15.66 -6 16 C-6.66 15.01 -7.32 14.02 -8 13 C-5.36 8.71 -2.72 4.42 0 0 Z " fill="#DAF1F4" transform="translate(105,72)"/>
<path d="M0 0 C0.33 0 0.66 0 1 0 C1.08076963 2.45898655 1.14037143 4.91533742 1.1875 7.375 C1.22520508 8.42300781 1.22520508 8.42300781 1.26367188 9.4921875 C1.29296875 11.5234375 1.29296875 11.5234375 1 15 C0.01 15.66 -0.98 16.32 -2 17 C-2.144375 15.906875 -2.28875 14.81375 -2.4375 13.6875 C-2.88288104 10.06877013 -2.88288104 10.06877013 -4 7 C-2.92745123 4.48301368 -1.45196548 2.33194455 0 0 Z " fill="#ECFBFD" transform="translate(110,64)"/>
<path d="M0 0 C7.115727 0.97032641 7.115727 0.97032641 10 3 C10.75 5.125 10.75 5.125 11 7 C8.29120665 8.35439668 5.99066732 8.06501451 3 8 C2.67 6.02 2.34 4.04 2 2 C1.34 2 0.68 2 0 2 C0 1.34 0 0.68 0 0 Z " fill="#12475E" transform="translate(86,168)"/>
<path d="M0 0 C0.639375 0.165 1.27875 0.33 1.9375 0.5 C4.04582216 1.24598544 4.04582216 1.24598544 6 0 C8.125 0.4375 8.125 0.4375 10 1 C10 2.98 10 4.96 10 7 C9.38125 6.835 8.7625 6.67 8.125 6.5 C6.03936614 5.92365356 6.03936614 5.92365356 4 6 C2.66216607 5.68521554 1.32796291 5.35412344 0 5 C-0.5625 3.0625 -0.5625 3.0625 -1 1 C-0.67 0.67 -0.34 0.34 0 0 Z " fill="#05405C" transform="translate(46,208)"/>
<path d="M0 0 C0.66 0.33 1.32 0.66 2 1 C2.75 3.875 2.75 3.875 3 7 C2.01 8.485 2.01 8.485 1 10 C1.66 10.33 2.32 10.66 3 11 C2.360625 11.28875 1.72125 11.5775 1.0625 11.875 C-1.15206079 12.82823451 -1.15206079 12.82823451 -2 15 C-3.98 14.34 -5.96 13.68 -8 13 C-7.67 12.34 -7.34 11.68 -7 11 C-6.67 11.33 -6.34 11.66 -6 12 C-5.67 11.34 -5.34 10.68 -5 10 C-4.01 10 -3.02 10 -2 10 C0.09350689 6.5980513 0.17942163 3.94727588 0 0 Z " fill="#0B5B81" transform="translate(131,113)"/>
<path d="M0 0 C0.66 0 1.32 0 2 0 C2 4.62 2 9.24 2 14 C1.34 12.68 0.68 11.36 0 10 C-0.66 10 -1.32 10 -2 10 C-2 9.34 -2 8.68 -2 8 C-2.928125 8.99 -2.928125 8.99 -3.875 10 C-6 12 -6 12 -8 12 C-6.59808647 9.00745382 -4.96632511 6.4045389 -3 3.75 C-2.484375 3.04359375 -1.96875 2.3371875 -1.4375 1.609375 C-0.963125 1.07828125 -0.48875 0.5471875 0 0 Z " fill="#C5DEE9" transform="translate(122,67)"/>
<path d="M0 0 C2.53827244 0.45326294 3.94137988 0.95420304 6 2.5625 C8.13084232 4.3890907 8.13084232 4.3890907 12 4 C13.5625 6.8125 13.5625 6.8125 15 10 C14.67 10.99 14.34 11.98 14 13 C12.41540185 11.58474822 10.83237609 10.1677358 9.25 8.75 C8.36828125 7.96109375 7.4865625 7.1721875 6.578125 6.359375 C4.32133835 4.29407328 2.14260074 2.18264936 0 0 Z " fill="#E1F5F9" transform="translate(182,22)"/>
<path d="M0 0 C3.20977688 2.68953782 4.77586349 6.17877564 6.5625 9.875 C6.86607422 10.48730469 7.16964844 11.09960938 7.48242188 11.73046875 C12 20.92310049 12 20.92310049 12 25 C11.34 25 10.68 25 10 25 C9.67 25.66 9.34 26.32 9 27 C8.93683594 26.36835937 8.87367188 25.73671875 8.80859375 25.0859375 C7.76308009 17.44818511 5.05895557 11.56706316 1.4609375 4.87109375 C0 2 0 2 0 0 Z " fill="#236C89" transform="translate(212,56)"/>
<path d="M0 0 C2.9375 0.8125 2.9375 0.8125 6 2 C6.33 2.99 6.66 3.98 7 5 C7.66 5 8.32 5 9 5 C9 5.66 9 6.32 9 7 C9.99 7 10.98 7 12 7 C12.33 6.34 12.66 5.68 13 5 C13.33 5.99 13.66 6.98 14 8 C14.66 8.66 15.32 9.32 16 10 C15.30132812 9.9278125 14.60265625 9.855625 13.8828125 9.78125 C12.97273437 9.6884375 12.06265625 9.595625 11.125 9.5 C9.76761719 9.36078125 9.76761719 9.36078125 8.3828125 9.21875 C6.06686789 8.96952705 6.06686789 8.96952705 4 9 C4.0825 8.2575 4.165 7.515 4.25 6.75 C3.92894816 3.21842973 2.64734383 2.23369636 0 0 Z " fill="#067BAB" transform="translate(164,14)"/>
<path d="M0 0 C1.65 0.33 3.3 0.66 5 1 C1.77645306 8.98211624 1.77645306 8.98211624 -1 12 C-1.66 12 -2.32 12 -3 12 C-2.68950274 10.56206608 -2.3765224 9.1246682 -2.0625 7.6875 C-1.88847656 6.88699219 -1.71445312 6.08648437 -1.53515625 5.26171875 C-1 3 -1 3 0 0 Z " fill="#1B6F92" transform="translate(3,76)"/>
<path d="M0 0 C0.66 1.32 1.32 2.64 2 4 C1.54625 4.391875 1.0925 4.78375 0.625 5.1875 C-1.27642919 7.30832487 -2.06204028 9.33042235 -3 12 C-3.66 12 -4.32 12 -5 12 C-5.33 12.99 -5.66 13.98 -6 15 C-8.5625 16.1875 -8.5625 16.1875 -11 17 C-10.62488281 16.443125 -10.24976563 15.88625 -9.86328125 15.3125 C-6.47873126 10.26551362 -3.18638454 5.17435011 0 0 Z " fill="#DAEEF3" transform="translate(214,175)"/>
<path d="M0 0 C0.66 0 1.32 0 2 0 C2 10.23 2 20.46 2 31 C0.02 31.99 0.02 31.99 -2 33 C-1.67854004 32.30237549 -1.35708008 31.60475098 -1.02587891 30.88598633 C0.10006423 27.71850089 0.31492826 25.17826056 0.4140625 21.82421875 C0.45273438 20.66728516 0.49140625 19.51035156 0.53125 18.31835938 C0.5621875 17.12017578 0.593125 15.92199219 0.625 14.6875 C0.66367188 13.46998047 0.70234375 12.25246094 0.7421875 10.99804688 C0.83628002 7.99884772 0.92192209 4.99965177 1 2 C0.34 1.67 -0.32 1.34 -1 1 C-0.67 0.67 -0.34 0.34 0 0 Z " fill="#D6EFF9" transform="translate(128,88)"/>
<path d="M0 0 C-0.33 0.99 -0.66 1.98 -1 3 C-1.99 3.33 -2.98 3.66 -4 4 C-5.20882096 6.00016466 -5.20882096 6.00016466 -6 8 C-6 7.34 -6 6.68 -6 6 C-7.98 6 -9.96 6 -12 6 C-11.01 5.34 -10.02 4.68 -9 4 C-10.32 3.34 -11.64 2.68 -13 2 C-4.57142857 -0.28571429 -4.57142857 -0.28571429 0 0 Z M-14 6 C-12 7 -12 7 -12 7 Z " fill="#2292BF" transform="translate(101,0)"/>
<path d="M0 0 C0.33 0 0.66 0 1 0 C1.42354299 3.24701383 1.80893307 6.49746049 2.1875 9.75 C2.30802734 10.67039063 2.42855469 11.59078125 2.55273438 12.5390625 C2.65263672 13.42851562 2.75253906 14.31796875 2.85546875 15.234375 C3.00471802 16.45979004 3.00471802 16.45979004 3.15698242 17.70996094 C3 20 3 20 0 24 C0 16.08 0 8.16 0 0 Z " fill="#025379" transform="translate(141,144)"/>
<path d="M0 0 C0.66 0.33 1.32 0.66 2 1 C0.1875 3 0.1875 3 -2 5 C-2.99 5 -3.98 5 -5 5 C-4.67 5.99 -4.34 6.98 -4 8 C-7.33333333 8 -10.66666667 8 -14 8 C-11.10181338 5.70841058 -8.16859456 3.92137634 -4.875 2.25 C-4.00617188 1.80140625 -3.13734375 1.3528125 -2.2421875 0.890625 C-1.50226563 0.59671875 -0.76234375 0.3028125 0 0 Z " fill="#DFEFF2" transform="translate(129,127)"/>
<path d="M0 0 C0.99 0.33 1.98 0.66 3 1 C2.01 1.495 2.01 1.495 1 2 C0.27306096 3.97888961 -0.39816251 5.97954558 -1 8 C-2.1446875 8.2165625 -2.1446875 8.2165625 -3.3125 8.4375 C-6.08172908 8.9632594 -6.08172908 8.9632594 -9 10 C-9 9.01 -9 8.02 -9 7 C-7.36209288 5.95355934 -5.68991979 4.9601817 -4 4 C-2.63015802 2.70420353 -1.2848951 1.38007251 0 0 Z " fill="#057DB3" transform="translate(56,16)"/>
<path d="M0 0 C4.62 0 9.24 0 14 0 C14.66 1.65 15.32 3.3 16 5 C13.5185269 4.55208067 11.0403355 4.09226182 8.5625 3.625 C7.85544922 3.49867187 7.14839844 3.37234375 6.41992188 3.2421875 C4.59948 2.89377757 2.79728352 2.452957 1 2 C0.67 1.34 0.34 0.68 0 0 Z " fill="#D3F2F5" transform="translate(130,0)"/>
<path d="M0 0 C1.65 0 3.3 0 5 0 C5.33 1.65 5.66 3.3 6 5 C7.65 5.33 9.3 5.66 11 6 C11 6.99 11 7.98 11 9 C11.66 9.33 12.32 9.66 13 10 C9.03990775 10 7.85479241 8.59219817 4.8125 6.125 C3.91144531 5.40570313 3.01039062 4.68640625 2.08203125 3.9453125 C1.39496094 3.30335938 0.70789062 2.66140625 0 2 C0 1.34 0 0.68 0 0 Z " fill="#1D485C" transform="translate(34,202)"/>
<path d="M0 0 C2.93200474 2.85276137 5.64315404 5.65079784 8 9 C6.35 9.33 4.7 9.66 3 10 C2.34 8.68 1.68 7.36 1 6 C0.01 6.495 0.01 6.495 -1 7 C-0.67 4.69 -0.34 2.38 0 0 Z " fill="#E2F0F4" transform="translate(18,186)"/>
<path d="M0 0 C0.66 0.33 1.32 0.66 2 1 C-1.49796099 5.7699468 -4.93940587 9.91775105 -11 11 C-11.33 10.34 -11.66 9.68 -12 9 C-11.21753906 8.43410156 -10.43507812 7.86820313 -9.62890625 7.28515625 C-8.61699219 6.55167969 -7.60507813 5.81820312 -6.5625 5.0625 C-5.55316406 4.33160156 -4.54382813 3.60070312 -3.50390625 2.84765625 C-1.17707392 1.22678115 -1.17707392 1.22678115 0 0 Z " fill="#DBEBEF" transform="translate(188,206)"/>
<path d="M0 0 C0 6.27 0 12.54 0 19 C-0.33 19 -0.66 19 -1 19 C-1.33 14.38 -1.66 9.76 -2 5 C-2.99 5.495 -2.99 5.495 -4 6 C-4.99 4.68 -5.98 3.36 -7 2 C-2.25 0 -2.25 0 0 0 Z " fill="#EBF8F8" transform="translate(138,124)"/>
<path d="M0 0 C0.66 0 1.32 0 2 0 C4.05942922 2.66963047 5.0374539 4.21346812 4.875 7.625 C3.95378863 10.12543087 3.03532927 11.31864104 1 13 C0.67 11.68 0.34 10.36 0 9 C0.99 9 1.98 9 3 9 C2.67 8.34 2.34 7.68 2 7 C1.34 7 0.68 7 0 7 C0 4.69 0 2.38 0 0 Z " fill="#086C96" transform="translate(96,69)"/>
<path d="M0 0 C0.66 0 1.32 0 2 0 C1.52651586 4.1666604 0.95303159 6.92884715 -2 10 C-2.66 10 -3.32 10 -4 10 C-4.33 7.69 -4.66 5.38 -5 3 C-4.01 2.67 -3.02 2.34 -2 2 C-2 2.66 -2 3.32 -2 4 C-1.34 3.34 -0.68 2.68 0 2 C0 1.34 0 0.68 0 0 Z " fill="#15648E" transform="translate(107,63)"/>
<path d="M0 0 C0.33 0.66 0.66 1.32 1 2 C0.34 2 -0.32 2 -1 2 C-1.33 2.99 -1.66 3.98 -2 5 C-4.66666667 5 -7.33333333 5 -10 5 C-10.33 4.34 -10.66 3.68 -11 3 C-7.16674383 0.29417212 -4.67461851 -0.32613618 0 0 Z " fill="#0380B8" transform="translate(72,11)"/>
<path d="M0 0 C-1.65 0.66 -3.3 1.32 -5 2 C-5 2.66 -5 3.32 -5 4 C-6.134375 4.28875 -7.26875 4.5775 -8.4375 4.875 C-9.613125 5.24625 -10.78875 5.6175 -12 6 C-12.33 6.66 -12.66 7.32 -13 8 C-16.0625 8.625 -16.0625 8.625 -19 9 C-14.39996664 4.87583216 -6.27947074 -2.09315691 0 0 Z " fill="#2A7CA1" transform="translate(66,12)"/>
<path d="M0 0 C0 0.99 0 1.98 0 3 C0.66 3.33 1.32 3.66 2 4 C-1.26545761 5.88391785 -4.28111761 6.49287967 -8 7 C-7.39816251 4.97954558 -6.72693904 2.97888961 -6 1 C-4 0 -4 0 0 0 Z " fill="#094356" transform="translate(176,211)"/>
<path d="M0 0 C2.31 0 4.62 0 7 0 C5.64978174 4.41889613 3.73884332 6.34345343 0 9 C0 6.03 0 3.06 0 0 Z " fill="#0B3D53" transform="translate(201,184)"/>
<path d="M0 0 C5.69305433 1.23876645 11.35370013 2.56276003 17 4 C17 4.33 17 4.66 17 5 C11.72 4.67 6.44 4.34 1 4 C0.67 2.68 0.34 1.36 0 0 Z " fill="#2889B2" transform="translate(127,0)"/>
<path d="M0 0 C3.62107449 4.44404597 5.33060893 8.21434368 5 14 C4.01 13.67 3.02 13.34 2 13 C0.5946484 8.56204759 -0.29241839 4.67869431 0 0 Z " fill="#066E9B" transform="translate(216,66)"/>
<path d="M0 0 C0.66 0 1.32 0 2 0 C2.36923077 5.53846154 2.36923077 5.53846154 0.5 7.875 C-0.2425 8.431875 -0.2425 8.431875 -1 9 C-1.33 8.67 -1.66 8.34 -2 8 C-2.66 8.66 -3.32 9.32 -4 10 C-5.125 6.25 -5.125 6.25 -4 4 C-3.01 4 -2.02 4 -1 4 C-0.67 2.68 -0.34 1.36 0 0 Z " fill="#0973AB" transform="translate(113,52)"/>
<path d="M0 0 C0.99 0 1.98 0 3 0 C3.33 2.31 3.66 4.62 4 7 C3.34 7 2.68 7 2 7 C2 7.66 2 8.32 2 9 C1.34 9 0.68 9 0 9 C-0.84454356 5.62182575 -1.10844919 3.32534757 0 0 Z " fill="#034E6F" transform="translate(209,169)"/>
<path d="M0 0 C4.18597423 2.62840242 7.67294903 5.28153127 11 9 C11 9.66 11 10.32 11 11 C9.68 10.34 8.36 9.68 7 9 C7 8.34 7 7.68 7 7 C6.01 7 5.02 7 4 7 C3.67 6.34 3.34 5.68 3 5 C2.01 4.67 1.02 4.34 0 4 C0 2.68 0 1.36 0 0 Z " fill="#25779E" transform="translate(188,28)"/>
<path d="M0 0 C0.33 1.32 0.66 2.64 1 4 C0.34 4 -0.32 4 -1 4 C-1 4.66 -1 5.32 -1 6 C-1.66 6 -2.32 6 -3 6 C-3 6.66 -3 7.32 -3 8 C-3.66 8 -4.32 8 -5 8 C-5 9.32 -5 10.64 -5 12 C-6.65 12 -8.3 12 -10 12 C-9.61328125 11.55269531 -9.2265625 11.10539063 -8.828125 10.64453125 C-5.81609925 7.1478974 -2.85678969 3.62592537 0 0 Z " fill="#D8F0F3" transform="translate(202,192)"/>
<path d="M0 0 C0.66 0.99 1.32 1.98 2 3 C-2.63541645 6.09027763 -6.71766056 4.81266761 -12 4 C-11.67 3.34 -11.34 2.68 -11 2 C-8.9375 1.375 -8.9375 1.375 -7 1 C-7 1.66 -7 2.32 -7 3 C-3.535 2.505 -3.535 2.505 0 2 C0 1.34 0 0.68 0 0 Z " fill="#044B67" transform="translate(118,179)"/>
<path d="M0 0 C2.40072955 2.88087546 4.47291037 5.56404834 6 9 C2.75791433 8.64950425 1.38472296 8.43778819 -0.8125 5.9375 C-1.204375 5.298125 -1.59625 4.65875 -2 4 C-1.34 2.68 -0.68 1.36 0 0 Z " fill="#DFF3F7" transform="translate(11,175)"/>
<path d="M0 0 C0.66 0 1.32 0 2 0 C1.54857225 1.77260631 1.08859477 3.5430368 0.625 5.3125 C0.24214844 6.79169922 0.24214844 6.79169922 -0.1484375 8.30078125 C-1 11 -1 11 -3 14 C-3.57293869 4.26004228 -3.57293869 4.26004228 0 0 Z " fill="#E2F8FC" transform="translate(3,71)"/>
<path d="M0 0 C1.77706209 2.66559313 2.87548273 5.0280615 4 8 C2.02 8.33 0.04 8.66 -2 9 C-2.33 8.34 -2.66 7.68 -3 7 C-2.06421005 4.64018187 -1.06652192 2.30368736 0 0 Z " fill="#076E9D" transform="translate(211,55)"/>
<path d="M0 0 C0 0.99 0 1.98 0 3 C-1.45804169 3.81302325 -2.91644315 4.62540131 -4.375 5.4375 C-5.18710938 5.88996094 -5.99921875 6.34242188 -6.8359375 6.80859375 C-8.20996622 7.5650536 -9.59709261 8.29854631 -11 9 C-11.99 8.34 -12.98 7.68 -14 7 C-9.38 4.69 -4.76 2.38 0 0 Z " fill="#D6E7EE" transform="translate(175,216)"/>
<path d="M0 0 C0.33 0 0.66 0 1 0 C0.88490339 1.41750563 0.75746342 2.83401169 0.625 4.25 C0.55539063 5.03890625 0.48578125 5.8278125 0.4140625 6.640625 C-0.02179718 9.12420279 -0.68357147 10.85610211 -2 13 C-4.125 14.25 -4.125 14.25 -6 15 C-4.40109514 9.80355921 -2.25861997 4.93387858 0 0 Z " fill="#D3E6EE" transform="translate(221,160)"/>
<path d="M0 0 C1.25955231 3.77865693 0.48087189 5.03411786 -0.9375 8.6875 C-1.31777344 9.68136719 -1.69804687 10.67523438 -2.08984375 11.69921875 C-2.39019531 12.45847656 -2.69054687 13.21773437 -3 14 C-3.99 14 -4.98 14 -6 14 C-4.50829734 9.0276578 -2.39542583 4.58154261 0 0 Z " fill="#277492" transform="translate(10,61)"/>
<path d="M0 0 C0.66 0 1.32 0 2 0 C2.24954005 1.43410368 2.47392642 2.87260072 2.6875 4.3125 C2.81511719 5.11300781 2.94273438 5.91351563 3.07421875 6.73828125 C3 9 3 9 1.51953125 10.79296875 C1.01808594 11.19128906 0.51664063 11.58960937 0 12 C0.33 10.02 0.66 8.04 1 6 C0.01 5.67 -0.98 5.34 -2 5 C-1.34 3.35 -0.68 1.7 0 0 Z " fill="#1473A0" transform="translate(13,56)"/>
<path d="M0 0 C2.24578708 2.24578708 2.85650419 4.069792 4 7 C4.99 8.485 4.99 8.485 6 10 C5.01 10.495 5.01 10.495 4 11 C3.34 10.67 2.68 10.34 2 10 C2 9.01 2 8.02 2 7 C1.01 7 0.02 7 -1 7 C-1.04254356 5.00045254 -1.04080783 2.99958364 -1 1 C-0.67 0.67 -0.34 0.34 0 0 Z " fill="#0672AC" transform="translate(121,57)"/>
<path d="M0 0 C0.33 0 0.66 0 1 0 C1.49230769 6.4 1.49230769 6.4 -1 9.4375 C-1.99 10.2109375 -1.99 10.2109375 -3 11 C-3.36785986 4.62376238 -3.36785986 4.62376238 -1.5625 1.5625 C-1.046875 1.046875 -0.53125 0.53125 0 0 Z " fill="#D9F6FA" transform="translate(117,56)"/>
<path d="M0 0 C1.90318884 2.85478326 2.4619099 4.41941308 3.125 7.6875 C3.29257812 8.49574219 3.46015625 9.30398437 3.6328125 10.13671875 C3.75398437 10.75160156 3.87515625 11.36648437 4 12 C2.66666667 12 1.33333333 12 0 12 C0 8.04 0 4.08 0 0 Z " fill="#D7EFF2" transform="translate(0,148)"/>
<path d="M0 0 C0.99 0.33 1.98 0.66 3 1 C2.01 1.495 2.01 1.495 1 2 C1.99 4.31 2.98 6.62 4 9 C2.68 10.32 1.36 11.64 0 13 C0 8.71 0 4.42 0 0 Z " fill="#E4F9FD" transform="translate(114,79)"/>
<path d="M0 0 C-5.37330889 3.39366878 -9.86946489 3.32712342 -16 3 C-13.2403139 1.16020927 -11.70258118 0.51676779 -8.5625 -0.1875 C-7.41974609 -0.45626953 -7.41974609 -0.45626953 -6.25390625 -0.73046875 C-3.87041504 -1.0154963 -2.26895796 -0.72875415 0 0 Z " fill="#D2E7ED" transform="translate(145,231)"/>
<path d="M0 0 C0.33 0 0.66 0 1 0 C1.33 2.64 1.66 5.28 2 8 C3.32 7.67 4.64 7.34 6 7 C6.33 7.66 6.66 8.32 7 9 C1.25 12 1.25 12 -1 12 C-0.67 8.04 -0.34 4.08 0 0 Z " fill="#DEF0F4" transform="translate(115,167)"/>
<path d="M0 0 C0.66 0.33 1.32 0.66 2 1 C2.73075648 3.3140622 3.40138258 5.64828869 4 8 C2.68 8.33 1.36 8.66 0 9 C-0.66 6.69 -1.32 4.38 -2 2 C-1.34 2 -0.68 2 0 2 C0 1.34 0 0.68 0 0 Z " fill="#165570" transform="translate(4,151)"/>
<path d="M0 0 C2.64 0.33 5.28 0.66 8 1 C5.38485683 3.12038635 2.80362384 5.13091744 0 7 C-0.93423645 3.98968256 -1.04449911 3.13349732 0 0 Z " fill="#E0F1F4" transform="translate(41,18)"/>
<path d="M0 0 C0.66 0.33 1.32 0.66 2 1 C0.56988027 1.86646667 -0.86940619 2.71781829 -2.3125 3.5625 C-3.51326172 4.27599609 -3.51326172 4.27599609 -4.73828125 5.00390625 C-7 6 -7 6 -10 5 C-9.67 4.01 -9.34 3.02 -9 2 C-7.88625 1.855625 -6.7725 1.71125 -5.625 1.5625 C-2.17857953 1.21627965 -2.17857953 1.21627965 0 0 Z " fill="#124363" transform="translate(124,128)"/>
<path d="M0 0 C1.66666667 1.66666667 3.33333333 3.33333333 5 5 C3.68 6.32 2.36 7.64 1 9 C0 7 -1 5 -2 3 C-1.34 2.01 -0.68 1.02 0 0 Z " fill="#145E88" transform="translate(118,62)"/>
<path d="M0 0 C0.66 0.66 1.32 1.32 2 2 C0.6875 4.9375 0.6875 4.9375 -1 8 C-1.99 8.33 -2.98 8.66 -4 9 C-4.33 8.34 -4.66 7.68 -5 7 C-3.35 4.69 -1.7 2.38 0 0 Z " fill="#1D7698" transform="translate(20,46)"/>
<path d="M0 0 C0.99 0.33 1.98 0.66 3 1 C1.55746343 4.36591866 -0.33264727 6.51047079 -3 9 C-2.25 2.25 -2.25 2.25 0 0 Z " fill="#D9F5F9" transform="translate(19,42)"/>
<path d="M0 0 C1.32 0 2.64 0 4 0 C4 0.66 4 1.32 4 2 C5.32 2.66 6.64 3.32 8 4 C8 4.66 8 5.32 8 6 C2.25 4.25 2.25 4.25 0 2 C0 1.34 0 0.68 0 0 Z " fill="#1C4A5D" transform="translate(58,218)"/>
<path d="M0 0 C0.66 0.66 1.32 1.32 2 2 C0.35 5.3 -1.3 8.6 -3 12 C-3.33 12 -3.66 12 -4 12 C-3.5317879 7.22423661 -2.75668002 3.95523655 0 0 Z " fill="#D8F1F8" transform="translate(9,59)"/>
<path d="M0 0 C2.475 0.495 2.475 0.495 5 1 C5 3.31 5 5.62 5 8 C2.27573689 5.64722731 1.1858237 3.37503669 0 0 Z " fill="#D3F1F7" transform="translate(214,58)"/>
<path d="M0 0 C0.66 0 1.32 0 2 0 C2 0.66 2 1.32 2 2 C2.99 2 3.98 2 5 2 C5.99 4.31 6.98 6.62 8 9 C7.01 9 6.02 9 5 9 C3.35 6.03 1.7 3.06 0 0 Z " fill="#CFF2F8" transform="translate(207,47)"/>
<path d="M0 0 C-1.76956458 2.14210449 -2.87575652 2.96060573 -5.5625 3.8125 C-6.366875 3.874375 -7.17125 3.93625 -8 4 C-8.66 3.34 -9.32 2.68 -10 2 C-6.3558226 -0.4294516 -4.28758728 -0.16179575 0 0 Z " fill="#1882A6" transform="translate(76,8)"/>
<path d="M0 0 C0.66 0.33 1.32 0.66 2 1 C2 1.66 2 2.32 2 3 C1.34 3 0.68 3 0 3 C-0.33 3.99 -0.66 4.98 -1 6 C-2.32 5.34 -3.64 4.68 -5 4 C-3.36587557 2.29159719 -2.13093906 1.06546953 0 0 Z " fill="#1D4F6B" transform="translate(134,169)"/>
<path d="M0 0 C0.33 0 0.66 0 1 0 C1 3.3 1 6.6 1 10 C-1.475 9.01 -1.475 9.01 -4 8 C-3.67 7.34 -3.34 6.68 -3 6 C-2.34 6 -1.68 6 -1 6 C-0.67 4.02 -0.34 2.04 0 0 Z " fill="#E5F2F7" transform="translate(110,169)"/>
<path d="M0 0 C0.66 0.66 1.32 1.32 2 2 C-0.31 3.65 -2.62 5.3 -5 7 C-5.33 6.01 -5.66 5.02 -6 4 C-4.02 2.68 -2.04 1.36 0 0 Z " fill="#DEF2F7" transform="translate(124,120)"/>
<path d="M0 0 C0.33 0 0.66 0 1 0 C1.12375 1.134375 1.2475 2.26875 1.375 3.4375 C1.58125 4.613125 1.7875 5.78875 2 7 C2.66 7.33 3.32 7.66 4 8 C3.34 9.65 2.68 11.3 2 13 C1.34 12.67 0.68 12.34 0 12 C0 8.04 0 4.08 0 0 Z " fill="#165B87" transform="translate(112,66)"/>
<path d="M0 0 C0.33 1.32 0.66 2.64 1 4 C1.66 4 2.32 4 3 4 C3 5.98 3 7.96 3 10 C2.34 10 1.68 10 1 10 C0.814375 9.13375 0.814375 9.13375 0.625 8.25 C-0.00648824 5.97664233 -0.88858191 4.0746471 -2 2 C-1.34 2 -0.68 2 0 2 C0 1.34 0 0.68 0 0 Z " fill="#036D97" transform="translate(125,59)"/>
<path d="M0 0 C0 0.66 0 1.32 0 2 C0.66 2.33 1.32 2.66 2 3 C0.02 3.99 0.02 3.99 -2 5 C-2 4.34 -2 3.68 -2 3 C-3.98 3 -5.96 3 -8 3 C-5.36657694 0.36657694 -3.69534435 0 0 0 Z " fill="#298BB3" transform="translate(80,5)"/>
<path d="M0 0 C0.33 0 0.66 0 1 0 C0.67 2.31 0.34 4.62 0 7 C-0.66 7 -1.32 7 -2 7 C-2 7.66 -2 8.32 -2 9 C-2.99 9.33 -3.98 9.66 -5 10 C-3.66654496 6.40992874 -2.1056769 3.20429093 0 0 Z " fill="#D3ECF2" transform="translate(95,88)"/>
<path d="M0 0 C4.29 0.33 8.58 0.66 13 1 C13 1.66 13 2.32 13 3 C11.39667209 3.08121924 9.79215974 3.13929134 8.1875 3.1875 C7.29417969 3.22230469 6.40085938 3.25710938 5.48046875 3.29296875 C3 3 3 3 0 0 Z " fill="#0C7EAF" transform="translate(134,4)"/>
<path d="M0 0 C2.875 -0.125 2.875 -0.125 6 0 C6.66 0.66 7.32 1.32 8 2 C6.35 2.66 4.7 3.32 3 4 C3 3.34 3 2.68 3 2 C2.01 2.33 1.02 2.66 0 3 C0 2.01 0 1.02 0 0 Z " fill="#074358" transform="translate(160,217)"/>
<path d="M0 0 C0 1.65 0 3.3 0 5 C-2.31 4.67 -4.62 4.34 -7 4 C-3.375 0 -3.375 0 0 0 Z " fill="#E7F7FB" transform="translate(129,90)"/>
<path d="M0 0 C2.3125 0.125 2.3125 0.125 5 1 C6.875 3.9375 6.875 3.9375 8 7 C7.67 7.66 7.34 8.32 7 9 C5.83037314 7.69013727 4.66437056 6.3770374 3.5 5.0625 C2.8503125 4.33160156 2.200625 3.60070313 1.53125 2.84765625 C0 1 0 1 0 0 Z " fill="#C4EAF0" transform="translate(199,38)"/>
<path d="M0 0 C0 3 0 3 -1 6 C-1.99 6.66 -2.98 7.32 -4 8 C-4.99 7.67 -5.98 7.34 -7 7 C-4.69 4.69 -2.38 2.38 0 0 Z " fill="#3B88A4" transform="translate(33,31)"/>
<path d="M0 0 C1.98 1.65 3.96 3.3 6 5 C5.01 5.66 4.02 6.32 3 7 C3 6.34 3 5.68 3 5 C2.01 4.67 1.02 4.34 0 4 C-0.33 3.01 -0.66 2.02 -1 1 C-0.67 0.67 -0.34 0.34 0 0 Z " fill="#E8F8FD" transform="translate(25,195)"/>
<path d="M0 0 C0 0.66 0 1.32 0 2 C-0.99 2 -1.98 2 -3 2 C-3 2.99 -3 3.98 -3 5 C-3.99 4.67 -4.98 4.34 -6 4 C-6 2.68 -6 1.36 -6 0 C-3 -1 -3 -1 0 0 Z " fill="#044767" transform="translate(198,193)"/>
<path d="M0 0 C0.66 1.32 1.32 2.64 2 4 C-0.70879335 5.35439668 -3.00933268 5.06501451 -6 5 C-5.67 3.68 -5.34 2.36 -5 1 C-2.525 1.99 -2.525 1.99 0 3 C0 2.01 0 1.02 0 0 Z " fill="#0C5170" transform="translate(95,171)"/>
<path d="M0 0 C2.97 0.99 5.94 1.98 9 3 C9 3.66 9 4.32 9 5 C7.35 4.67 5.7 4.34 4 4 C4 3.34 4 2.68 4 2 C2.68 2 1.36 2 0 2 C0 1.34 0 0.68 0 0 Z " fill="#298CA9" transform="translate(147,5)"/>
<path d="M0 0 C0.99 0 1.98 0 3 0 C3 2.64 3 5.28 3 8 C2.34 7.67 1.68 7.34 1 7 C0.59270772 4.67843403 0.25561323 2.3431213 0 0 Z " fill="#055372" transform="translate(217,154)"/>
<path d="M0 0 C0.99 0.33 1.98 0.66 3 1 C3.9765625 7.0546875 3.9765625 7.0546875 4 9 C3.34 9.66 2.68 10.32 2 11 C1.34 7.37 0.68 3.74 0 0 Z " fill="#01557A" transform="translate(4,145)"/>
<path d="M0 0 C0.33 0.99 0.66 1.98 1 3 C1.66 3.33 2.32 3.66 3 4 C0.525 5.485 0.525 5.485 -2 7 C-2 5.02 -2 3.04 -2 1 C-1.34 0.67 -0.68 0.34 0 0 Z " fill="#0F577A" transform="translate(114,93)"/>
<path d="M0 0 C0.99 0.33 1.98 0.66 3 1 C3.33 1.99 3.66 2.98 4 4 C2.02 4.66 0.04 5.32 -2 6 C-1.34 4.02 -0.68 2.04 0 0 Z " fill="#145E82" transform="translate(127,84)"/>
<path d="M0 0 C0.66 0.99 1.32 1.98 2 3 C1.67 3.99 1.34 4.98 1 6 C-0.32 5.67 -1.64 5.34 -3 5 C-3 4.01 -3 3.02 -3 2 C-2.34 2 -1.68 2 -1 2 C-0.67 1.34 -0.34 0.68 0 0 Z " fill="#E8F7F8" transform="translate(101,82)"/>
<path d="M0 0 C5.875 3.75 5.875 3.75 7 6 C5.35 5.67 3.7 5.34 2 5 C2 4.34 2 3.68 2 3 C1.01 2.67 0.02 2.34 -1 2 C-0.67 1.34 -0.34 0.68 0 0 Z " fill="#1E7B9F" transform="translate(178,20)"/>
<path d="M0 0 C3.79588866 0.54226981 5.47211993 2.20127563 8 5 C5 5 5 5 2.3125 2.5 C1.549375 1.675 0.78625 0.85 0 0 Z " fill="#CFF3FA" transform="translate(182,22)"/>
<path d="M0 0 C5.75 -0.125 5.75 -0.125 8 1 C8 1.99 8 2.98 8 4 C5.0280615 2.87548273 2.66559313 1.77706209 0 0 Z " fill="#D2F3F8" transform="translate(165,12)"/>
<path d="M0 0 C2.64 0.33 5.28 0.66 8 1 C8.33 1.99 8.66 2.98 9 4 C6.03 3.01 3.06 2.02 0 1 C0 0.67 0 0.34 0 0 Z " fill="#BEECF4" transform="translate(156,8)"/>
</svg>
